<?xml version="1.0" encoding="UTF-8"?>
<svg width="1193px" height="266px" viewBox="0 0 1193 266" version="1.1" xmlns="http://www.w3.org/2000/svg" xmlns:xlink="http://www.w3.org/1999/xlink">
    <!-- Generator: Sketch 57.1 (83088) - https://sketch.com -->
    <title>Artboard Copy 6</title>
    <desc>Created with Sketch.</desc>
    <defs>
        <linearGradient x1="-0.173078649%" y1="48.2714469%" x2="99.8041187%" y2="48.2714469%" id="linearGradient-1">
            <stop stop-color="#00F4E0" offset="0%"></stop>
            <stop stop-color="#00E5BD" offset="100%"></stop>
        </linearGradient>
        <linearGradient x1="48.9828247%" y1="98.6098288%" x2="48.9828247%" y2="-1.3892567%" id="linearGradient-2">
            <stop stop-color="#00DECA" offset="0%"></stop>
            <stop stop-color="#00BA9A" offset="100%"></stop>
        </linearGradient>
    </defs>
    <g id="Artboard-Copy-6" stroke="none" stroke-width="1" fill="none" fill-rule="evenodd">
        <g id="happeo-logo-svg-default" transform="translate(50.000000, 46.000000)" fill-rule="nonzero">
            <g id="happeo-brand" transform="translate(200.000000, 7.000000)" fill="#2A3443">
                <path d="M1.63,126.32 C-0.37,57.3133333 -0.37,17.9366667 1.63,8.19 C3.63,-1.55666667 11.78,-1.55666667 26.08,8.19 L26.08,48 C23.64,50.7333333 23,51.9033333 24.16,51.51 C25.89,50.92 30.45,45.73 34.55,43.32 C38.65,40.91 42.55,39.22 51.55,39.22 C60.55,39.22 65.89,43.71 69.93,49.67 C73.97,55.63 76,63.86 76,74.42 L76,126.32 L51.53,126.32 L51.53,77.62 C51.53,71.5533333 50.7266667,67.3966667 49.12,65.15 C47.5133333,62.9033333 44.9366667,61.78 41.39,61.78 C38.5770475,61.697644 35.799833,62.4266628 33.39,63.88 C30.7533879,65.6273291 28.3008328,67.6376202 26.07,69.88 L26.07,126.33 L1.63,126.32 Z" id="Shape"></path>
                <path d="M108.69,128.58 C105.184758,128.632913 101.705016,127.976422 98.46,126.65 C95.5210201,125.434061 92.8829318,123.591153 90.73,121.25 C88.6003732,118.919168 86.9340328,116.204153 85.82,113.25 C84.6259714,110.073676 84.0325656,106.703131 84.07,103.31 C84.07,94.5366667 87.7366667,87.6833333 95.07,82.75 C102.403333,77.8166667 114.213333,74.5033333 130.5,72.81 C130.459785,69.5770287 129.316706,66.4547305 127.26,63.96 C125.32,61.7733333 122.076667,60.6766667 117.53,60.67 C113.913144,60.6756011 110.328871,61.3537984 106.96,62.67 C103.072401,64.209241 99.3194793,66.0689775 95.74,68.23 C91.74,70.59 81.6,55.14 86.92,51.88 C92.1867211,48.6597313 97.7858594,46.0177427 103.62,44 C109.587699,41.966028 115.855386,40.951839 122.16,41 C132.826667,41 140.95,44.06 146.53,50.18 C152.11,56.3 154.91,65.82 154.93,78.74 L154.93,126.6 C143.53,127.36 136.863333,127.36 134.93,126.6 C132.996667,125.84 132.456667,122.973333 133.31,118 L132.64,118 C129.270592,121.020584 125.526517,123.595056 121.5,125.66 C117.523592,127.639931 113.131646,128.641061 108.69,128.58 Z M117,109.37 C119.509759,109.436887 121.987639,108.795757 124.15,107.52 C126.45153,106.030378 128.572388,104.278657 130.47,102.3 L130.47,87.63 C121.803333,88.87 115.803333,90.67 112.47,93.03 C109.136667,95.39 107.47,98.1966667 107.47,101.45 C107.47,104.15 108.326667,106.15 110.04,107.45 C112.083813,108.842124 114.531505,109.517349 117,109.37 Z" id="Shape"></path>
                <path d="M164.39,157.57 C162.55,148.97 162.55,110.88 164.39,43.3 L184,43.3 L184,51.24 C184,51.24 177.07,60.24 186.65,51.24 C193.34,45.72 193.5,45.87 197.54,43.91 C201.457309,41.9854665 205.765481,40.9896936 210.13,41 C214.794426,40.9171339 219.411611,41.9454603 223.6,44 C227.607892,46.0311509 231.084129,48.9731085 233.75,52.59 C236.681067,56.6313046 238.853044,61.1717885 240.16,65.99 C241.7113,71.6714295 242.465183,77.5409488 242.4,83.43 C242.508045,89.9246276 241.524359,96.3912686 239.49,102.56 C237.773769,107.716593 235.122928,112.513192 231.67,116.71 C228.623843,120.414134 224.827051,123.430437 220.53,125.56 C216.519687,127.533694 212.109684,128.560072 207.64,128.56 C204.076666,128.555365 200.556383,127.781039 197.32,126.29 C193.865171,124.680527 190.715267,122.48473 188.01,119.8 L188.84,133.11 L188.84,157.55 C174.373333,166.156667 166.223333,166.163333 164.39,157.57 Z M201.79,108 C205.996667,108 209.6,106.063333 212.6,102.19 C215.6,98.3166667 217.096667,92.0533333 217.090022,83.4 C217.090022,68.3466667 212.323333,60.82 202.79,60.82 C198.016667,60.82 193.303333,63.3466667 188.65,68.4 L188.65,102.61 C190.561423,104.44571 192.823083,105.877528 195.3,106.82 C197.379431,107.583432 199.574924,107.982613 201.79,108 Z" id="Shape"></path>
                <path d="M252.18,157.57 C250.34,148.97 250.34,110.88 252.18,43.3 L271.82,43.3 L271.82,51.24 C271.82,51.24 264.88,60.24 274.47,51.24 C281.16,45.72 281.31,45.87 285.36,43.91 C289.268219,41.9899535 293.565609,40.9953608 297.92,41 C302.584426,40.9171339 307.201611,41.9454603 311.39,44 C315.397892,46.0311509 318.874129,48.9731085 321.54,52.59 C324.47119,56.6298715 326.640092,61.1710087 327.94,65.99 C329.499671,71.6699525 330.257012,77.540183 330.19,83.43 C330.298045,89.9246276 329.314359,96.3912686 327.28,102.56 C325.563769,107.716593 322.912928,112.513192 319.46,116.71 C316.413843,120.414134 312.617051,123.430437 308.32,125.56 C304.309687,127.533694 299.899684,128.560072 295.43,128.56 C291.866666,128.555365 288.346383,127.781039 285.11,126.29 C281.655171,124.680527 278.505267,122.48473 275.8,119.8 L276.63,133.11 L276.63,157.55 C262.156667,166.156667 254.006667,166.163333 252.18,157.57 Z M289.58,108 C293.786667,108 297.39,106.063333 300.39,102.19 C303.39,98.3166667 304.886667,92.0533333 304.880022,83.4 C304.880022,68.3466667 300.11,60.82 290.57,60.82 C285.81,60.82 281.1,63.3466667 276.44,68.4 L276.44,102.61 C278.351423,104.44571 280.613083,105.877528 283.09,106.82 C285.169431,107.583432 287.364924,107.982613 289.58,108 Z" id="Shape"></path>
                <path d="M458.7,128.580432 C453.509797,128.571069 448.370938,127.552128 443.57,125.58 C438.738294,123.651398 434.351833,120.755449 430.68,117.07 C426.815567,113.142128 423.787876,108.471321 421.78,103.34 C417.339761,91.3237342 417.339761,78.1162658 421.78,66.1 C423.787876,60.9686791 426.815567,56.2978718 430.68,52.37 C434.351833,48.6845509 438.738294,45.7886022 443.57,43.86 C448.380515,41.935791 453.519038,40.964464 458.7,41 C463.864657,40.9885585 468.981352,41.9908329 473.76,43.95 C478.558359,45.8972526 482.915086,48.7915338 486.57,52.46 C490.431187,56.3904759 493.458421,61.0605798 495.47,66.19 C499.897062,78.208619 499.897062,91.411381 495.47,103.43 C493.458421,108.55942 490.431187,113.229524 486.57,117.16 C482.915086,120.828466 478.558359,123.722747 473.76,125.67 C468.97859,127.615472 463.861992,128.604137 458.7,128.580432 Z M458.7,108.53 C463.380175,108.709721 467.761085,106.232882 470.02,102.13 C472.573333,97.8633333 473.846667,92.0766667 473.840026,84.77 C473.833333,77.4633333 472.553333,71.6766667 470,67.41 C467.596401,63.4355538 463.289729,61.0070864 458.645,61.0070864 C454.000271,61.0070864 449.693599,63.4355538 447.29,67.41 C444.803333,71.6833333 443.556667,77.47 443.549973,84.77 C443.543333,92.07 444.79,97.8566667 447.29,102.13 C449.552962,106.273259 453.984584,108.759006 458.7,108.53 Z" id="Shape"></path>
                <path d="M379.19,128.580719 C373.561316,128.611699 367.976,127.594337 362.72,125.58 C357.728256,123.689947 353.192436,120.76603 349.41,117 C345.543447,113.091423 342.541858,108.413578 340.6,103.27 C338.398004,97.3415936 337.326182,91.0531189 337.44,84.73 C337.351742,78.4791057 338.479317,72.2706489 340.76,66.45 C342.767855,61.3293897 345.734219,56.638869 349.5,52.63 C353.009366,48.9514305 357.222973,46.016529 361.89,44 C366.453983,42.0101378 371.381108,40.9891711 376.36,41 C381.646942,40.8710689 386.898566,41.8947772 391.75,44 C396.019434,45.9212108 399.784844,48.8068843 402.75,52.43 C405.774671,56.1854995 408.012448,60.5114151 409.33,65.15 C410.809929,70.3255814 411.537384,75.6871951 411.49,81.07 C411.49,82.27 411.28,84.82 410.85,88.75 C410.635619,90.5591015 409.037101,91.8801907 407.22,91.75 C375.746667,89.5633333 360.37,90.4233333 361.09,94.33 C362.2,100.39 364.66,102.52 368.49,105.33 C372.554445,108.268675 377.476731,109.78052 382.49,109.63 C388.37,109.63 394.303333,107.776667 400.29,104.07 C406.29,100.36 412.66,116.15 408.44,119.07 C404.116659,122.042689 399.383734,124.370412 394.39,125.98 C389.49232,127.643496 384.362138,128.521027 379.19,128.580719 Z M363,75.14 C363.24,75.96 381,76.14 390.5,73.39 C390.623474,69.6622931 389.574191,65.9898027 387.5,62.89 C385.07,60.31 382.8,58.96 378.31,58.51 C374.62,58.14 368.5,59.26 365.12,63.39 C361.88,67.36 359.75,73.26 363,75.14 Z" id="Shape"></path>
            </g>
            <g id="happeo-symbol">
                <path d="M150,58.93 C150,95.69 132.44,124.53 108.24,139.04 C97.3998499,145.664062 84.9438182,149.172511 72.24,149.18 C66.3671986,149.174675 60.5205325,148.398033 54.85,146.87 L54.77,146.87 C26.16,140.19 3.75,116.62 1,87 C-2.41,49.75 26.4,17 65.34,13.65 C81.1789956,12.2708197 97.0360624,16.090277 110.51,24.53 C116.65,17.19 121.93,9.36 125.42,0.79 C128.58,6.89 131.22,12.79 133.6,18.51 C135.934588,15.4292803 137.989415,12.1462428 139.74,8.7 C146.92,26.54 150,43.43 150,58.93 Z" id="Shape" fill="url(#linearGradient-1)"></path>
                <path d="M139.84,9 C174.7,96.7 113.26,162.38 54.84,146.89 C10.91,72.86 113.34,61.24 139.84,9 Z" id="Shape" fill="url(#linearGradient-2)"></path>
            </g>
        </g>
        <path d="M852.19,183 L852.19,171.44 C846.976641,180.506712 839.100053,185.04 828.56,185.04 C818.359949,185.04 810.823358,181.980031 805.95,175.86 C801.076642,169.739969 798.64,160.050066 798.64,146.79 L798.64,96.13 L807.65,96.13 L807.65,149.85 C807.65,167.87009 814.676596,176.88 828.73,176.88 C844.370078,176.88 852.19,167.246763 852.19,147.98 L852.19,96.13 L861.2,96.13 L861.2,183 L852.19,183 Z M903.36,75.05 C902.113327,76.183339 900.583342,76.75 898.77,76.75 C896.956658,76.75 895.455006,76.1550059 894.265,74.965 C893.074994,73.7749941 892.48,72.2733424 892.48,70.46 C892.48,68.5333237 893.074994,66.9183398 894.265,65.615 C895.455006,64.3116601 896.956658,63.66 898.77,63.66 C900.583342,63.66 902.113327,64.3116601 903.36,65.615 C904.606673,66.9183398 905.23,68.5333237 905.23,70.46 C905.23,72.2733424 904.606673,73.8033271 903.36,75.05 Z M894.35,183 L894.35,96.13 L903.36,96.13 L903.36,183 L894.35,183 Z M1000.94,183 L990.91,183 L962.01,126.22 L945.52,143.9 L945.52,183 L936.51,183 L936.51,64.68 L945.52,60.26 L945.52,133.02 L979.35,96.13 L990.06,96.13 L968.3,119.59 L1000.94,183 Z M1032.05,75.05 C1030.80333,76.183339 1029.27334,76.75 1027.46,76.75 C1025.64666,76.75 1024.14501,76.1550059 1022.955,74.965 C1021.76499,73.7749941 1021.17,72.2733424 1021.17,70.46 C1021.17,68.5333237 1021.76499,66.9183398 1022.955,65.615 C1024.14501,64.3116601 1025.64666,63.66 1027.46,63.66 C1029.27334,63.66 1030.80333,64.3116601 1032.05,65.615 C1033.29667,66.9183398 1033.92,68.5333237 1033.92,70.46 C1033.92,72.2733424 1033.29667,73.8033271 1032.05,75.05 Z M1023.04,183 L1023.04,96.13 L1032.05,96.13 L1032.05,183 L1023.04,183 Z M1086.28,185.04 C1075.28661,185.04 1069.79,178.410066 1069.79,165.15 L1069.79,104.29 L1055,104.29 L1055,96.13 L1069.79,96.13 L1069.79,64.68 L1078.8,60.26 L1078.8,96.13 L1100.9,96.13 L1100.9,104.29 L1078.8,104.29 L1078.8,162.26 C1078.8,166.90669 1079.45166,170.419988 1080.755,172.8 C1082.05834,175.180012 1084.69331,176.37 1088.66,176.37 C1092.62669,176.37 1096.93331,174.840015 1101.58,171.78 L1100.56,181.3 C1096.47998,183.793346 1091.72003,185.04 1086.28,185.04 Z" id="uikit" fill="#2A3443" fill-rule="nonzero"></path>
        <g id="Group-2" transform="translate(50.000000, 116.000000)">
            <path d="M150,0 L150,10.6666667 L144.666,10.666 L144.666667,15.3333333 L141.333,15.333 L141.333333,20.6666667 L135.333,20.666 L135.333333,24.6666667 L131.333,24.666 L131.333333,30 L96,30 L95.999,24.666 L92,24.6666667 L92,20.666 L87.3333333,20.6666667 L87.333,15.333 L82,15.3333333 L81.999,10.666 L68,10.666 L68,15.3333333 L64,15.333 L64,24.6666667 L53.333,24.666 L53.3333333,30 L20,30 L20,24.666 L14,24.6666667 L14,20 L10,20 L10,15.333 L5.33333333,15.3333333 L5.333,10.666 L0,10.6666667 L0,0 L150,0 Z" id="Combined-Shape" fill="#2A3443"></path>
            <g id="Group" transform="translate(15.000000, 10.000000)" fill="#FFFFFF">
                <path d="M5.2987013,0 L5.2987013,5.56521739 L9.93506494,5.56521739 L9.93506494,0 L15.2337662,0 L15.2337662,5.56521739 L19.8701299,5.56521739 L19.87,10.434 L24.5064935,10.4347826 L24.5064935,16 L19.2077922,16 L19.207,11.13 L14.5714286,11.1304348 L14.5714286,16 L9.27272727,16 L9.272,11.13 L4.63636364,11.1304348 L4.63636364,5.56521739 L0,5.56521739 L0,0 L5.2987013,0 Z M14.5714286,5.56521739 L9.93506494,5.56521739 L9.935,10.434 L14.5714286,10.4347826 L14.5714286,5.56521739 Z" id="Combined-Shape"></path>
                <path d="M82.7922078,0 L82.7922078,5.56521739 L87.4285714,5.56521739 L87.4285714,0 L92.7272727,0 L92.7272727,5.56521739 L97.3636364,5.56521739 L97.3635065,10.434 L102,10.4347826 L102,16 L96.7012987,16 L96.7005065,11.13 L92.0649351,11.1304348 L92.0649351,16 L86.7662338,16 L86.7655065,11.13 L82.1298701,11.1304348 L82.1298701,5.56521739 L77.4935065,5.56521739 L77.4935065,0 L82.7922078,0 Z M92.0649351,5.56521739 L87.4285714,5.56521739 L87.4285065,10.434 L92.0649351,10.4347826 L92.0649351,5.56521739 Z" id="Combined-Shape"></path>
            </g>
        </g>
    </g>
</svg>