<svg viewBox="0 0 24 24" xmlns="http://www.w3.org/2000/svg">
<path d="M21.208 2.79495C21.5973 3.18431 21.5973 3.81559 21.208 4.20495L17.413 7.99995H20.003C20.5553 7.99995 21.003 8.44767 21.003 8.99995C21.003 9.55224 20.5553 9.99995 20.003 9.99995H15.003C14.4507 9.99995 14.003 9.55224 14.003 8.99995V3.99995C14.003 3.44767 14.4507 2.99995 15.003 2.99995C15.5553 2.99995 16.003 3.44767 16.003 3.99995V6.58995L19.798 2.79495C20.1873 2.40559 20.8186 2.40559 21.208 2.79495Z M2.795 19.7979C2.40564 20.1873 2.40564 20.8186 2.795 21.2079C3.18436 21.5973 3.81564 21.5973 4.205 21.2079L8 17.4129V20.0029C8 20.5552 8.44771 21.0029 9 21.0029C9.55228 21.0029 10 20.5552 10 20.0029L10 15.0029C10 14.4506 9.55228 14.0029 9 14.0029H4C3.44771 14.0029 3 14.4506 3 15.0029C3 15.5552 3.44771 16.0029 4 16.0029H6.59L2.795 19.7979Z"/>
</svg>
