<svg height="100%" viewBox="0 0 18 18" width="100%" xmlns="http://www.w3.org/2000/svg" preserveAspectRatio="xMidYMid meet">
<path fill-rule="evenodd" clip-rule="evenodd" d="M6.75 9C8.1975 9 9.375 7.8225 9.375 6.375C9.375 4.9275 8.1975 3.75 6.75 3.75C5.3025 3.75 4.125 4.9275 4.125 6.375C4.125 7.8225 5.3025 9 6.75 9ZM1.5 12.9375C1.5 11.19 4.995 10.3125 6.75 10.3125C8.505 10.3125 12 11.19 12 12.9375V14.25H1.5V12.9375ZM6.75 11.8125C5.4075 11.8125 3.885 12.315 3.255 12.75H10.245C9.615 12.315 8.0925 11.8125 6.75 11.8125ZM7.875 6.375C7.875 5.7525 7.3725 5.25 6.75 5.25C6.1275 5.25 5.625 5.7525 5.625 6.375C5.625 6.9975 6.1275 7.5 6.75 7.5C7.3725 7.5 7.875 6.9975 7.875 6.375ZM12.03 10.3575C12.9 10.9875 13.5 11.8275 13.5 12.9375V14.25H16.5V12.9375C16.5 11.4225 13.875 10.56 12.03 10.3575ZM13.875 6.375C13.875 7.8225 12.6975 9 11.25 9C10.845 9 10.47 8.9025 10.125 8.7375C10.5975 8.07 10.875 7.2525 10.875 6.375C10.875 5.4975 10.5975 4.68 10.125 4.0125C10.47 3.8475 10.845 3.75 11.25 3.75C12.6975 3.75 13.875 4.9275 13.875 6.375Z"/>
</svg>
