<svg width="24" height="24" viewBox="0 0 24 24" fill="none" xmlns="http://www.w3.org/2000/svg">
<path d="M19 3H5C3.89 3 3 3.89 3 5V19C3 19.5304 3.21071 20.0391 3.58579 20.4142C3.96086 20.7893 4.46957 21 5 21H19C19.5304 21 20.0391 20.7893 20.4142 20.4142C20.7893 20.0391 21 19.5304 21 19V5C21 3.89 20.1 3 19 3Z" fill="white"/>
<path fill-rule="evenodd" clip-rule="evenodd" d="M5 3H19C20.1 3 21 3.89 21 5V19C21 19.5304 20.7893 20.0391 20.4142 20.4142C20.0391 20.7893 19.5304 21 19 21H5C4.46957 21 3.96086 20.7893 3.58579 20.4142C3.21071 20.0391 3 19.5304 3 19V5C3 3.89 3.89 3 5 3ZM8 7C7.44772 7 7 7.44772 7 8C7 8.55228 7.44772 9 8 9H16C16.5523 9 17 8.55228 17 8C17 7.44772 16.5523 7 16 7H8ZM7 12C7 11.4477 7.44772 11 8 11H13C13.5523 11 14 11.4477 14 12C14 12.5523 13.5523 13 13 13H8C7.44772 13 7 12.5523 7 12ZM8 15C7.44772 15 7 15.4477 7 16C7 16.5523 7.44772 17 8 17H16C16.5523 17 17 16.5523 17 16C17 15.4477 16.5523 15 16 15H8Z" fill="#8997A1"/>
</svg>
