<svg height="100%" viewBox="0 0 20 20" width="100%" xmlns="http://www.w3.org/2000/svg" preserveAspectRatio="xMidYMid meet"><g id="icon-chain" fill-rule="evenodd"><path d="M16.1176471,13.7647059 C16.1176471,14.0098039 16.0196078,14.245098 15.8431373,14.4215686 L14.4019608,15.8529412 C14.2254902,16.0196078 13.9803922,16.1078431 13.7352941,16.1078431 C13.4901961,16.1078431 13.245098,16.0196078 13.0686275,15.8431373 L11.0490196,13.8137255 C10.872549,13.6372549 10.7745098,13.3921569 10.7745098,13.1470588 C10.7745098,12.8529412 10.8921569,12.627451 11.0980392,12.4313725 C11.4215686,12.754902 11.6960784,13.1372549 12.1960784,13.1372549 C12.7156863,13.1372549 13.1372549,12.7156863 13.1372549,12.1960784 C13.1372549,11.6960784 12.754902,11.4215686 12.4313725,11.0980392 C12.627451,10.8921569 12.8529412,10.7843137 13.1372549,10.7843137 C13.3823529,10.7843137 13.627451,10.8823529 13.8039216,11.0588235 L15.8431373,13.0980392 C16.0196078,13.2745098 16.1176471,13.5098039 16.1176471,13.7647059 Z M9.2254902,6.85294118 C9.2254902,7.14705882 9.10784314,7.37254902 8.90196078,7.56862745 C8.57843137,7.24509804 8.30392157,6.8627451 7.80392157,6.8627451 C7.28431373,6.8627451 6.8627451,7.28431373 6.8627451,7.80392157 C6.8627451,8.30392157 7.24509804,8.57843137 7.56862745,8.90196078 C7.37254902,9.10784314 7.14705882,9.20588235 6.8627451,9.20588235 C6.61764706,9.20588235 6.37254902,9.11764706 6.19607843,8.94117647 L4.15686275,6.90196078 C3.98039216,6.7254902 3.88235294,6.49019608 3.88235294,6.23529412 C3.88235294,5.99019608 3.98039216,5.75490196 4.15686275,5.57843137 L5.59803922,4.14705882 C5.7745098,3.98039216 6.01960784,3.88235294 6.26470588,3.88235294 C6.50980392,3.88235294 6.75490196,3.98039216 6.93137255,4.15686275 L8.95098039,6.18627451 C9.12745098,6.3627451 9.2254902,6.60784314 9.2254902,6.85294118 Z M18,13.7647059 C18,13.0098039 17.7156863,12.3039216 17.1764706,11.7647059 L15.1372549,9.7254902 C14.6078431,9.19607843 13.8823529,8.90196078 13.1372549,8.90196078 C12.3627451,8.90196078 11.6372549,9.21568627 11.0980392,9.76470588 L10.2352941,8.90196078 C10.7843137,8.3627451 11.0980392,7.62745098 11.0980392,6.85294118 C11.0980392,6.10784314 10.8137255,5.39215686 10.2843137,4.8627451 L8.26470588,2.83333333 C7.73529412,2.29411765 7.01960784,2 6.26470588,2 C5.51960784,2 4.80392157,2.28431373 4.2745098,2.81372549 L2.83333333,4.24509804 C2.30392157,4.76470588 2,5.49019608 2,6.23529412 C2,6.99019608 2.28431373,7.69607843 2.82352941,8.23529412 L4.8627451,10.2745098 C5.39215686,10.8039216 6.11764706,11.0980392 6.8627451,11.0980392 C7.6372549,11.0980392 8.3627451,10.7843137 8.90196078,10.2352941 L9.76470588,11.0980392 C9.21568627,11.6372549 8.90196078,12.372549 8.90196078,13.1470588 C8.90196078,13.8921569 9.18627451,14.6078431 9.71568627,15.1372549 L11.7352941,17.1666667 C12.2647059,17.7058824 12.9803922,18 13.7352941,18 C14.4803922,18 15.1960784,17.7156863 15.7254902,17.1862745 L17.1666667,15.754902 C17.6960784,15.2352941 18,14.5098039 18,13.7647059 Z"></path></g></svg>