<svg width="24" height="24" viewBox="0 0 24 24" fill="#434F59" xmlns="http://www.w3.org/2000/svg">
    <path fill-rule="evenodd" clip-rule="evenodd"
          d="M6 3C5.44772 3 5 3.44772 5 4C5 4.55228 5.44772 5 6 5H21C21.5523 5 22 4.55228 22 4C22 3.44772 21.5523 3 21 3H6ZM16 8C16 7.44772 16.4477 7 17 7H21C21.5523 7 22 7.44772 22 8C22 8.55228 21.5523 9 21 9H17C16.4477 9 16 8.55228 16 8ZM16 12C16 12.5523 16.4477 13 17 13H21C21.5523 13 22 12.5523 22 12C22 11.4477 21.5523 11 21 11H17C16.4477 11 16 11.4477 16 12ZM16 16C16 15.4477 16.4477 15 17 15H21C21.5523 15 22 15.4477 22 16C22 16.5523 21.5523 17 21 17H17C16.4477 17 16 16.5523 16 16ZM6 21C5.44772 21 5 20.5523 5 20C5 19.4477 5.44772 19 6 19H21C21.5523 19 22 19.4477 22 20C22 20.5523 21.5523 21 21 21H6ZM4 7C2.89543 7 2 7.89543 2 9V15C2 16.1046 2.89543 17 4 17H12C13.1046 17 14 16.1046 14 15V9C14 7.89543 13.1046 7 12 7H4Z"/>
</svg>
