<svg preserveAspectRatio="xMidYMid meet" height="100%" width="100%" xmlns="http://www.w3.org/2000/svg" viewBox="0 0 32 28"><g id="channels-attach" fill="none" fill-rule="evenodd"><rect width="32" height="28" fill="#00A4E9" rx="2"/><g fill="#FFFFFF" transform="translate(6 6)"><path fill-opacity=".5" d="M17.9134658,11.5967691 C17.5993641,11.4677436 17.090731,11.4677436 16.7765902,11.5967691 L12.1920958,13.4863491 C11.5868221,13.7367726 10.8075639,13.8791364 10.00229,13.8791364 C9.19189902,13.8791364 8.41322676,13.7367726 7.80639053,13.4863491 L3.22197423,11.5967691 C2.90845845,11.4677436 2.39857539,11.4677436 2.08509867,11.5967691 L0.705644876,12.1661868 C-0.235214959,12.5520231 -0.235214959,13.1830228 0.705644876,13.5758478 L8.29572671,16.7054095 C9.2366256,17.0981968 10.7640482,17.0981968 11.7040487,16.7054095 L19.295029,13.5758478 C20.2349903,13.1830604 20.2349903,12.5520231 19.295029,12.1661868 L17.9134658,11.5967691 L17.9134658,11.5967691 Z"/><path fill-opacity=".75" d="M17.9134267,7.09668491 C17.599325,6.9677717 17.0906919,6.9677717 16.7765512,7.09668491 L12.1920567,8.98547196 C12.1673302,8.99827691 12.1431505,9.0040598 12.1183458,9.01570066 C11.5245564,9.24799229 10.7754935,9.3780696 10.002251,9.3780696 C9.22295372,9.3780696 8.47451586,9.24795474 7.88068744,9.01570066 C7.8559218,9.0040598 7.83115617,8.99827691 7.80639053,8.98547196 L3.22197423,7.09668491 C2.90845845,6.9677717 2.39857539,6.9677717 2.08509867,7.09668491 L0.705644876,7.66581067 C-0.235214959,8.05837076 -0.235214959,8.68814168 0.705644876,9.07491888 L4.21904503,10.5255587 L8.29572671,12.2084526 C8.76572694,12.3989498 9.38432099,12.5 10.002915,12.5 C10.6154544,12.5 11.2340485,12.3989873 11.7040487,12.2084526 L15.7816679,10.5255587 L19.295029,9.07491888 C20.2349903,8.68814168 20.2349903,8.05837076 19.295029,7.66581067 L17.9134267,7.09668491 L17.9134267,7.09668491 Z"/><path d="M2.65355668,5.45838035 L3.43980438,5.77528662 L4.22538801,6.08655141 L8.29572765,7.7177434 C8.76572627,7.90205641 9.38431821,8 10.0029101,8 C10.6154474,8 11.2340394,7.90209281 11.704038,7.7177434 L15.7743776,6.08655141 L16.5608987,5.77528662 L17.3462089,5.45838035 L19.2950314,4.68021838 C20.2349895,4.30562329 20.2349895,3.69463148 19.2950314,3.31414013 L11.704038,0.282584167 C11.2340394,0.0923020928 10.6154474,0 10.0029101,0 C9.38431821,0 8.76576533,0.0923020928 8.29572765,0.282584167 L0.705671761,3.31417652 C-0.23522392,3.69466788 -0.23522392,4.30478617 0.705671761,4.68021838 L2.65355668,5.45838035 Z"/></g></g></svg>