<svg width="24" height="24" viewBox="0 0 24 24" fill="none" xmlns="http://www.w3.org/2000/svg">
<path d="M19 3H5C3.89 3 3 3.89 3 5V19C3 19.5304 3.21071 20.0391 3.58579 20.4142C3.96086 20.7893 4.46957 21 5 21H19C19.5304 21 20.0391 20.7893 20.4142 20.4142C20.7893 20.0391 21 19.5304 21 19V5C21 3.89 20.1 3 19 3Z" fill="white"/>
<path fill-rule="evenodd" clip-rule="evenodd" d="M5 3C3.89543 3 3 3.89543 3 5V19C3 20.1046 3.89543 21 5 21H19C20.1046 21 21 20.1046 21 19V5C21 3.89543 20.1046 3 19 3H5ZM12.75 9C12.75 10.245 11.7508 11.25 10.5038 11.25C9.25668 11.25 8.25 10.245 8.25 9C8.25 7.755 9.25668 6.75 10.5038 6.75C11.7508 6.75 12.75 7.755 12.75 9ZM15.7525 12C16.5839 12 17.25 11.33 17.25 10.5C17.25 9.67 16.5839 9 15.7525 9C14.9211 9 14.25 9.67 14.25 10.5C14.25 11.33 14.9211 12 15.7525 12ZM19.5 16.5V15.5078C19.5 15.2011 19.3133 14.9253 19.0285 14.8114L17.3893 14.1557C17.1429 14.0572 16.875 14.2386 16.875 14.5039V16.875C16.875 17.0821 17.0429 17.25 17.25 17.25H18.75C19.1642 17.25 19.5 16.9142 19.5 16.5ZM5.25 14.7906V16.5C5.25 16.9142 5.58579 17.25 6 17.25H15C15.4142 17.25 15.75 16.9142 15.75 16.5V14.7906C15.75 14.4677 15.5434 14.1811 15.2372 14.0791L11.4809 12.827C11.328 12.776 11.1678 12.75 11.0066 12.75H9.99342C9.83219 12.75 9.67202 12.776 9.51907 12.827L5.76283 14.0791C5.45657 14.1811 5.25 14.4677 5.25 14.7906Z" fill="#5E2590"/>
<path d="M17.25 10.5C17.25 11.33 16.5839 12 15.7525 12C14.9211 12 14.25 11.33 14.25 10.5C14.25 9.67 14.9211 9 15.7525 9C16.5839 9 17.25 9.67 17.25 10.5Z" fill="#5E2590"/>
<path d="M17.25 10.5C17.25 11.33 16.5839 12 15.7525 12C14.9211 12 14.25 11.33 14.25 10.5C14.25 9.67 14.9211 9 15.7525 9C16.5839 9 17.25 9.67 17.25 10.5Z" fill="white" fill-opacity="0.8"/>
<path d="M19.5 15.5078V16.5C19.5 16.9142 19.1642 17.25 18.75 17.25H17.25C17.0429 17.25 16.875 17.0821 16.875 16.875V14.5039C16.875 14.2386 17.1429 14.0572 17.3893 14.1557L19.0285 14.8114C19.3133 14.9253 19.5 15.2011 19.5 15.5078Z" fill="#5E2590"/>
<path d="M19.5 15.5078V16.5C19.5 16.9142 19.1642 17.25 18.75 17.25H17.25C17.0429 17.25 16.875 17.0821 16.875 16.875V14.5039C16.875 14.2386 17.1429 14.0572 17.3893 14.1557L19.0285 14.8114C19.3133 14.9253 19.5 15.2011 19.5 15.5078Z" fill="white" fill-opacity="0.8"/>
</svg>
