<svg preserveAspectRatio="xMidYMid meet" height="100%" width="100%" xmlns="http://www.w3.org/2000/svg" viewBox="0 0 32 28"><g id="img-file" fill="none" fill-rule="evenodd"><rect width="32" height="28" fill="#EC4B2F" rx="2"/><path fill="#FFFFFF" d="M28,14.4 L28,22.3906261 C28,23.284163 27.33208,24 26.4998407,24 L5.50015927,24 C4.67198152,24 4,23.2814042 4,22.3906261 L4,17.6 L8.5,12.8 L13,17.6 L22,8 L28,14.4 Z M12.5,10 C11.5277729,10 10.7013923,9.65972563 10.0208333,8.97916667 C9.34027437,8.29860772 9,7.47222708 9,6.5 C9,5.52777292 9.34027437,4.70139228 10.0208333,4.02083333 C10.7013923,3.34027437 11.5277729,3 12.5,3 C13.4722271,3 14.2986077,3.34027437 14.9791667,4.02083333 C15.6597256,4.70139228 16,5.52777292 16,6.5 C16,7.47222708 15.6597256,8.29860772 14.9791667,8.97916667 C14.2986077,9.65972563 13.4722271,10 12.5,10 Z"/></g></svg>