<svg preserveAspectRatio="xMidYMid meet" height="100%" width="100%" xmlns="http://www.w3.org/2000/svg" viewBox="0 0 32 28"><g id="sound-file" fill="none" fill-rule="evenodd"><rect width="32" height="28" fill="#2AC4AF" rx="2"/><path fill="#FFFFFF" fill-rule="nonzero" d="M20.3944828,14 C20.3944828,12.3285714 19.5006897,10.8885714 18.1724138,10.1428571 L18.1724138,17.8571429 C19.4882759,17.1114286 20.3944828,15.6714286 20.3944828,14 Z M7,11.4285714 L7,16.5714286 L10.7241379,16.5714286 L15.6896552,21.7142857 L15.6896552,6.28571429 L10.7241379,11.4285714 L7,11.4285714 Z M18.1724138,5 L18.1724138,6.92857143 C21.0524138,7.88 23.137931,10.6957143 23.137931,14 C23.137931,17.3042857 21.0524138,20.12 18.1724138,21.0714286 L18.1724138,23 C22.0827586,21.9971429 25,18.3714286 25,14 C25,9.62857143 22.0827586,6.00285714 18.1724138,5 Z"/></g></svg>