<svg height="100%" viewBox="0 0 24 24" width="100%" xmlns="http://www.w3.org/2000/svg" preserveAspectRatio="xMidYMid meet">
<path d="M8.58333 8.41667C8.97222 8.80556 9.44444 9 10 9C10.5556 9 11.0278 8.80556 11.4167 8.41667C11.8056 8.02778 12 7.55556 12 7C12 6.44444 11.8056 5.97222 11.4167 5.58333C11.0278 5.19444 10.5556 5 10 5C9.44444 5 8.97222 5.19444 8.58333 5.58333C8.19444 5.97222 8 6.44444 8 7C8 7.55556 8.19444 8.02778 8.58333 8.41667Z"/>
<path fill-rule="evenodd" clip-rule="evenodd" d="M4 2H20C21.1045 2 22 2.85228 22 4V20C22 21.1477 21.1045 22 20 22H3.99912C2.89461 22 2 21.1477 2 20V4C2 2.85228 2.89549 2 4 2ZM4 5.00586V12L7 9L10 12L16 6L20 10V5.00586C20 4.44912 19.552 4 18.9999 4H5.00011C4.44528 4 4 4.4474 4 5.00586ZM13 14H11.5V20H13V14ZM9 14H6C5.4 14 5 14.5 5 15V19C5 19.5 5.4 20 6 20H9C9.6 20 10 19.5 10 19V17H8.5V18.5H6.5V15.5H10V15C10 14.5 9.6 14 9 14ZM19 14V15.5H16V16.5H18V18H16V20H14.5V14H19Z"/>
</svg>
