<svg height="100%" viewBox="0 0 24 24" width="100%" xmlns="http://www.w3.org/2000/svg" preserveAspectRatio="xMidYMid meet">
<path fill-rule="evenodd" clip-rule="evenodd" d="M18.0524 5H21.9524C22.5424 5 23.0024 5.51 22.9424 6.1L21.4024 21.53C21.3024 22.35 20.6124 23 19.7724 23H18.0724L18.0524 15C18.0524 10.77 14.9524 8.16 11.2724 7.31L11.1524 6.1C11.1024 5.51 11.5624 5 12.1524 5H16.0524V2C16.0524 1.45 16.5024 1 17.0524 1C17.6024 1 18.0524 1.45 18.0524 2V5ZM15.0524 21C15.6024 21 16.0524 21.45 16.0524 22C16.0524 22.55 15.6024 23 15.0524 23H2.05237C1.50237 23 1.05237 22.55 1.05237 22C1.05237 21.45 1.50237 21 2.05237 21H15.0524ZM14.9524 15C15.5724 15 16.0624 14.44 15.9424 13.84C15.2924 10.61 11.9224 8.99 8.55237 8.99C5.18237 8.99 1.82237 10.61 1.16237 13.84C1.04237 14.44 1.54237 15 2.15237 15H14.9524ZM1.05237 18C1.05237 17.45 1.50237 17 2.05237 17H15.0524C15.6024 17 16.0524 17.45 16.0524 18C16.0524 18.55 15.6024 19 15.0524 19H2.05237C1.50237 19 1.05237 18.55 1.05237 18Z"/>
</svg>
