<svg height="100%" viewBox="0 0 20 20" width="100%" xmlns="http://www.w3.org/2000/svg" preserveAspectRatio="xMidYMid meet"><g id="icon-files" fill-rule="evenodd"><path d="M8.0092757,2.01402531 L8.01,1 C8.01,0.45 8.45,0 9,0 L15,0 L20,5 L20,15 C20,15.55 19.55,16 19,16 L14,16 L14,8 L8.0092757,2.01402531 L8.0092757,2.01402531 Z M15,5 L15,1 L19,5 L15,5 Z M1,4 C0.45,4 0.01,4.45 0.01,5 L0,19 C0,19.55 0.44,20 1,20 L11,20 C11.55,20 12,19.55 12,19 L12,9 L7,4 L1,4 Z M7,9 L7,5 L11,9 L7,9 Z"></path></g></svg>