<svg height="100%" viewBox="0 0 20 20" width="100%" xmlns="http://www.w3.org/2000/svg" preserveAspectRatio="xMidYMid meet"><g id="icon-arrange" fill-rule="evenodd"><path d="M5,5 L5,1.13095238 L7,1.13095238 L7,5 L10.8690476,5 L10.8690476,7 L7,7 L7,10.8690476 L5,10.8690476 L5,7 L1.13095238,7 L1.13095238,5 L5,5 L5,5 Z M13.4716596,13.8858732 L10.7358298,11.1500434 L12.1500434,9.73582981 L14.8858732,12.4716596 L17.621703,9.73582981 L19.0359165,11.1500434 L16.3000867,13.8858732 L19.0359165,16.621703 L17.621703,18.0359165 L14.8858732,15.3000867 L12.1500434,18.0359165 L10.7358298,16.621703 L13.4716596,13.8858732 Z M6,17 C7.1045695,17 8,16.1045695 8,15 C8,13.8954305 7.1045695,13 6,13 C4.8954305,13 4,13.8954305 4,15 C4,16.1045695 4.8954305,17 6,17 Z M15,8 C16.1045695,8 17,7.1045695 17,6 C17,4.8954305 16.1045695,4 15,4 C13.8954305,4 13,4.8954305 13,6 C13,7.1045695 13.8954305,8 15,8 Z"></path></g></svg>