<svg height="100%" viewBox="0 0 20 20" width="100%" xmlns="http://www.w3.org/2000/svg" preserveAspectRatio="xMidYMid meet"><g id="icon-drag-handle-vertical" fill-rule="evenodd"><path d="M8.5,16 C8.5,15.1715729 7.82842712,14.5 7,14.5 C6.17157288,14.5 5.5,15.1715729 5.5,16 C5.5,16.8284271 6.17157288,17.5 7,17.5 C7.82842712,17.5 8.5,16.8284271 8.5,16 Z M14.5,16 C14.5,15.1715729 13.8284271,14.5 13,14.5 C12.1715729,14.5 11.5,15.1715729 11.5,16 C11.5,16.8284271 12.1715729,17.5 13,17.5 C13.8284271,17.5 14.5,16.8284271 14.5,16 Z M14.5,10 C14.5,9.17157288 13.8284271,8.5 13,8.5 C12.1715729,8.5 11.5,9.17157288 11.5,10 C11.5,10.8284271 12.1715729,11.5 13,11.5 C13.8284271,11.5 14.5,10.8284271 14.5,10 Z M14.5,4 C14.5,3.17157288 13.8284271,2.5 13,2.5 C12.1715729,2.5 11.5,3.17157288 11.5,4 C11.5,4.82842712 12.1715729,5.5 13,5.5 C13.8284271,5.5 14.5,4.82842712 14.5,4 Z M8.5,10 C8.5,9.17157288 7.82842712,8.5 7,8.5 C6.17157288,8.5 5.5,9.17157288 5.5,10 C5.5,10.8284271 6.17157288,11.5 7,11.5 C7.82842712,11.5 8.5,10.8284271 8.5,10 Z M8.5,4 C8.5,3.17157288 7.82842712,2.5 7,2.5 C6.17157288,2.5 5.5,3.17157288 5.5,4 C5.5,4.82842712 6.17157288,5.5 7,5.5 C7.82842712,5.5 8.5,4.82842712 8.5,4 Z" id="Combined-Shape"></path></g></svg>