<svg width="83" height="74" viewBox="0 0 83 74" fill="none" xmlns="http://www.w3.org/2000/svg">
<path d="M3.85384 27.7503L22.7393 12.719L41.2393 22.3545L59.3538 4.23987L78.2393 13.1045" stroke="#E8ECF2"/>
<path d="M0 53.0969C0 52.5913 0.409544 52.1814 0.914741 52.1814H7.7753C8.2805 52.1814 8.69004 52.5913 8.69004 53.0969V74H0V53.0969Z" fill="#E8ECF2"/>
<path d="M18.4473 37.534C18.4473 37.0284 18.8568 36.6186 19.362 36.6186H26.2226C26.7278 36.6186 27.1373 37.0284 27.1373 37.534V74H18.4473V37.534Z" fill="#E8ECF2"/>
<path d="M36.8946 45.3155C36.8946 44.8099 37.3041 44.4 37.8093 44.4H44.6699C45.1751 44.4 45.5846 44.8099 45.5846 45.3155V74H36.8946V45.3155Z" fill="#E8ECF2"/>
<path d="M55.3418 28.2268C55.3418 27.7212 55.7514 27.3113 56.2566 27.3113H63.1171C63.6223 27.3113 64.0319 27.7212 64.0319 28.2268V74H55.3418V28.2268Z" fill="#E8ECF2"/>
<path d="M73.7891 37.534C73.7891 37.0284 74.1987 36.6186 74.7039 36.6186H81.5644C82.0696 36.6186 82.4792 37.0284 82.4792 37.534V74H73.7891V37.534Z" fill="#E8ECF2"/>
<path d="M8.69004 27.2351C8.69004 29.6366 6.74471 31.5835 4.34502 31.5835C1.94533 31.5835 0 29.6366 0 27.2351C0 24.8335 1.94533 22.8866 4.34502 22.8866C6.74471 22.8866 8.69004 24.8335 8.69004 27.2351Z" fill="#E8ECF2"/>
<path d="M27.1373 13.0454C27.1373 15.4469 25.192 17.3938 22.7923 17.3938C20.3926 17.3938 18.4473 15.4469 18.4473 13.0454C18.4473 10.6438 20.3926 8.69691 22.7923 8.69691C25.192 8.69691 27.1373 10.6438 27.1373 13.0454Z" fill="#E8ECF2"/>
<path d="M45.5846 21.8948C45.5846 24.2964 43.6393 26.2433 41.2396 26.2433C38.8399 26.2433 36.8946 24.2964 36.8946 21.8948C36.8946 19.4933 38.8399 17.5464 41.2396 17.5464C43.6393 17.5464 45.5846 19.4933 45.5846 21.8948Z" fill="#E8ECF2"/>
<path d="M64.0319 4.34845C64.0319 6.75004 62.0866 8.69691 59.6869 8.69691C57.2872 8.69691 55.3418 6.75004 55.3418 4.34845C55.3418 1.94687 57.2872 0 59.6869 0C62.0866 0 64.0319 1.94687 64.0319 4.34845Z" fill="#E8ECF2"/>
<path d="M82.4792 13.0454C82.4792 15.4469 80.5338 17.3938 78.1341 17.3938C75.7345 17.3938 73.7891 15.4469 73.7891 13.0454C73.7891 10.6438 75.7345 8.69691 78.1341 8.69691C80.5338 8.69691 82.4792 10.6438 82.4792 13.0454Z" fill="#E8ECF2"/>
</svg>
