<svg viewBox="0 0 24 25" fill="none" xmlns="http://www.w3.org/2000/svg">
<path d="M19.8523 18.9848H4.12571C3.5159 18.9848 3.00238 18.5123 3.00238 17.9179V7.1278C3.00238 6.54866 3.49985 6.06097 4.12571 6.06097H19.8523C20.4621 6.06097 20.9756 6.53342 20.9756 7.1278V17.9179C20.9756 18.5123 20.4781 18.9848 19.8523 18.9848Z" fill="#E3E3E3"/>
<path opacity="0.1" d="M5.24897 18.9847L11.9729 13.8487L12.021 13.5744L5.0885 8.83466L5.07245 18.7561L5.24897 18.9847Z" fill="#231F20"/>
<path d="M4.12571 18.9848C3.49985 18.9848 3.00238 18.5123 3.00238 17.9179V7.11255C3.00238 6.51818 3.49985 6.4115 4.12571 6.4115C4.75156 6.4115 5.24904 6.53342 5.24904 7.11255V18.9848H4.12571Z" fill="#D54B3D"/>
<path d="M4.12571 6.5639C4.92808 6.5639 5.08856 6.79251 5.08856 7.11255V18.8324H4.12571C3.59614 18.8324 3.16286 18.4209 3.16286 17.9179V7.11255C3.16286 6.77727 3.32333 6.5639 4.12571 6.5639ZM4.12571 6.4115C3.49985 6.4115 3.00238 6.53342 3.00238 7.11255V17.9179C3.00238 18.5123 3.49985 18.9848 4.12571 18.9848H5.24904V7.11255C5.24904 6.51818 4.75156 6.4115 4.12571 6.4115Z" fill="#D72B27"/>
<path d="M19.8523 18.9848H18.7289V7.08207C18.7289 6.4877 19.2264 6.4115 19.8523 6.4115C20.4781 6.4115 20.9756 6.4877 20.9756 7.08207V17.9332C20.9756 18.5123 20.4781 18.9848 19.8523 18.9848Z" fill="#D54B3D"/>
<path d="M19.8523 6.5639C20.5744 6.5639 20.8151 6.70107 20.8151 7.08207V17.9332C20.8151 18.4361 20.3818 18.8476 19.8523 18.8476H18.8894V7.08207C18.8894 6.68582 19.1301 6.5639 19.8523 6.5639ZM19.8523 6.4115C19.2264 6.4115 18.7289 6.4877 18.7289 7.08207V19H19.8523C20.4781 19 20.9756 18.5276 20.9756 17.9332V7.08207C20.9756 6.4877 20.4781 6.4115 19.8523 6.4115Z" fill="#D72B27"/>
<path d="M15.038 18.9848L3.09637 7.55572L3.72449 7.79836L12.0371 13.483L20.9756 7.2583L20.9756 17.9332C20.9756 18.5123 20.4781 18.9848 19.8523 18.9848H15.038Z" fill="url(#paint0_linear)"/>
<path d="M11.9729 13.8492L3.48377 7.99687C2.9863 7.64635 2.84187 6.97577 3.21097 6.50332C3.58006 6.03087 4.3022 5.92419 4.81572 6.27472L11.989 11.2278L19.2104 6.21376C19.7078 5.86323 20.4139 5.96991 20.783 6.4576C21.1521 6.93005 21.0398 7.60063 20.5263 7.95115L11.9729 13.8492Z" fill="#D54B3D"/>
<path d="M19.8523 6.1524C20.1572 6.1524 20.446 6.28957 20.6386 6.53341C20.9435 6.9449 20.8472 7.50879 20.43 7.8136L11.9729 13.6659L3.58006 7.87456C3.14678 7.56975 3.03445 6.99062 3.33935 6.59437C3.51587 6.36577 3.82077 6.21336 4.14173 6.21336C4.35034 6.21336 4.55896 6.27433 4.71944 6.39625L11.8766 11.3341L11.9729 11.3951L12.0692 11.3341L19.2746 6.32005C19.4511 6.21336 19.6436 6.1524 19.8523 6.1524ZM19.8523 6C19.6276 6 19.3869 6.06096 19.1943 6.19812L11.9729 11.2122L4.79967 6.25909C4.6071 6.12192 4.36639 6.06096 4.12568 6.06096C3.77263 6.06096 3.41959 6.21336 3.19492 6.50293C2.84188 6.97538 2.9863 7.64595 3.48378 7.99648L11.9729 13.864L20.5102 7.95076C21.0077 7.60023 21.12 6.9449 20.767 6.45721C20.5423 6.1524 20.2053 6 19.8523 6Z" fill="#D72B27"/>
<defs>
<linearGradient id="paint0_linear" x1="3.09707" y1="13.1213" x2="20.9814" y2="13.1213" gradientUnits="userSpaceOnUse">
<stop stop-opacity="0.1"/>
<stop offset="1" stop-opacity="0.2"/>
</linearGradient>
</defs>
</svg>
