<svg height="100%" viewBox="0 0 24 24" width="100%" xmlns="http://www.w3.org/2000/svg" preserveAspectRatio="xMidYMid meet"><path id="hidden" d="M7.79245283,16.754717 C5.58962264,15.4268868 3.60377358,13.4009434 2,11.995283 C4.56132075,9.75 8.13915094,5.88207547 11.990566,5.88207547 C12.0919811,5.88207547 12.1910377,5.88443396 12.2924528,5.88915094 L11.4386792,7.94811321 C9.44575472,8.21698113 7.90801887,9.92688679 7.90801887,11.9929245 C7.90801887,12.9221698 8.21933962,13.7783019 8.74056604,14.4622642 L7.79245283,16.754717 Z M16.1933962,7.2240566 L15.240566,9.52358491 C15.7617925,10.2099057 16.0731132,11.0660377 16.0731132,11.9929245 C16.0731132,14.0613208 14.5353774,15.7688679 12.5424528,16.0377358 L11.6886792,18.0966981 C11.7900943,18.1014151 11.8891509,18.1037736 11.990566,18.1037736 C15.8419811,18.1037736 19.2924528,14.3490566 21.9811321,11.990566 C20.2712264,10.4976415 18.3325472,8.51886792 16.1933962,7.2240566 Z M16.5,3.79481132 L14.5990566,3.00707547 L7.47877358,20.1957547 L9.37971698,20.9834906 L16.5,3.79481132 Z"/></svg>