<svg height="100%" viewBox="0 0 30 30" width="100%" xmlns="http://www.w3.org/2000/svg" preserveAspectRatio="xMidYMid meet"><g id="icon-channels-30px" fill-rule="evenodd"><path d="M24.4543158,18.3349754 C24.0781287,18.1740283 23.4689591,18.1740283 23.0927251,18.3349754 L17.6020585,20.6920485 C16.8771462,21.0044283 15.9438596,21.1820137 14.9794152,21.1820137 C14.0088421,21.1820137 13.0762573,21.0044283 12.3494737,20.6920485 L6.85890058,18.3349754 C6.4834152,18.1740283 5.87274854,18.1740283 5.49730994,18.3349754 L3.84519298,19.0452703 C2.71836257,19.5265648 2.71836257,20.3136776 3.84519298,20.8036897 L12.9355322,24.7075232 C14.0624094,25.1974885 15.8917427,25.1974885 17.0175439,24.7075232 L26.1089591,20.8036897 C27.2347135,20.3137244 27.2347135,19.5265648 26.1089591,19.0452703 L24.4543158,18.3349754 L24.4543158,18.3349754 Z" id="bottom" fill-opacity="0.6"></path><path d="M24.4543158,12.9535596 C24.0781287,12.7926594 23.4689591,12.7926594 23.0927251,12.9535596 L17.6020585,15.3110077 C17.5724444,15.3269899 17.5434854,15.3342077 17.5137778,15.348737 C16.8026199,15.6386667 15.9054971,15.8010198 14.9794152,15.8010198 C14.0460819,15.8010198 13.1497076,15.6386198 12.4385029,15.348737 C12.4088421,15.3342077 12.3791813,15.3269899 12.3495205,15.3110077 L6.85894737,12.9535596 C6.48346199,12.7926594 5.87279532,12.7926594 5.49735673,12.9535596 L3.84523977,13.6639014 C2.71840936,14.1538667 2.71840936,14.9399014 3.84523977,15.4226489 L8.05309942,17.2332331 L12.9355789,19.3337002 C13.4984795,19.5714651 14.239345,19.6975887 14.9802105,19.6975887 C15.7138246,19.6975887 16.4546901,19.5715119 17.0175906,19.3337002 L21.901193,17.2332331 L26.1090058,15.4226489 C27.2347602,14.9399014 27.2347602,14.1538667 26.1090058,13.6639014 L24.4543158,12.9535596 L24.4543158,12.9535596 Z" id="middle" fill-opacity="0.8"></path><path d="M6.17810526,11.0447855 L7.11976608,11.4528711 L8.06063158,11.8536921 L12.9355322,13.9542061 C13.4984327,14.1915491 14.2392982,14.3176727 14.9801637,14.3176727 C15.7137778,14.3176727 16.4546433,14.191596 17.0175439,13.9542061 L21.8924444,11.8536921 L22.8344327,11.4528711 L23.7749708,11.0447855 L26.1090058,10.0427329 C27.2347602,9.5603604 27.2347602,8.77357576 26.1090058,8.28361051 L17.0175439,4.37982384 C16.4546433,4.13479434 15.7137778,4.01593535 14.9801637,4.01593535 C14.2392982,4.01593535 13.4984795,4.13479434 12.9355322,4.37982384 L3.84519298,8.28365737 C2.71831579,8.77362263 2.71831579,9.55928242 3.84519298,10.0427329 L6.17810526,11.0447855 Z" id="top" fill-opacity="1.0"></path></g></svg>