<svg height="100%" viewBox="0 0 20 20" width="100%" xmlns="http://www.w3.org/2000/svg" preserveAspectRatio="xMidYMid meet"><g id="icon-cogs" fill-rule="evenodd"><path d="M9.50001013,9.92856419 C9.50001013,11.2661774 8.40904901,12.3571385 7.07143581,12.3571385 C5.73382261,12.3571385 4.64286149,11.2661774 4.64286149,9.92856419 C4.64286149,8.59095099 5.73382261,7.49998987 7.07143581,7.49998987 C8.40904901,7.49998987 9.50001013,8.59095099 9.50001013,9.92856419 Z M16.7857331,14.7857128 C16.7857331,15.4497761 16.2449959,16 15.5714459,16 C14.9073827,16 14.3571588,15.4592627 14.3571588,14.7857128 C14.3571588,14.1216495 14.9073827,13.5714257 15.5714459,13.5714257 C16.2355092,13.5714257 16.7857331,14.1216495 16.7857331,14.7857128 Z M16.7857331,5.07141554 C16.7857331,5.73547884 16.2449959,6.28570271 15.5714459,6.28570271 C14.9073827,6.28570271 14.3571588,5.74496545 14.3571588,5.07141554 C14.3571588,4.40735225 14.9073827,3.85712838 15.5714459,3.85712838 C16.2355092,3.85712838 16.7857331,4.40735225 16.7857331,5.07141554 Z M13.1428716,9.06528191 C13.1428716,8.93246925 13.0480054,8.80914321 12.9151928,8.78068336 L11.4732268,8.56249113 C11.3878472,8.29686582 11.2740078,8.04072712 11.1506817,7.78458842 C11.4163071,7.4146103 11.7009056,7.07309204 11.9760175,6.70311392 C12.013964,6.64619421 12.0424239,6.5892745 12.0424239,6.52286817 C12.0424239,6.25724285 10.9230029,5.23268806 10.6763508,5.00500921 C10.6194311,4.95757612 10.5530248,4.92911627 10.4771318,4.92911627 C10.4107255,4.92911627 10.3443192,4.9480895 10.2873995,4.9955226 L9.16797849,5.83983164 C8.94029964,5.72599222 8.70313418,5.62163941 8.4564821,5.54574647 L8.23828988,4.09429384 C8.21931664,3.96148118 8.08650398,3.85712838 7.95369133,3.85712838 L6.18918029,3.85712838 C6.05636763,3.85712838 5.94252821,3.95199457 5.90458174,4.08480722 C5.7812557,4.54965153 5.73382261,5.07141554 5.68638952,5.54574647 C5.43025082,5.63112603 5.19308536,5.72599222 4.95591989,5.84931826 L3.86495877,4.9955226 C3.80803906,4.95757612 3.74163273,4.92911627 3.66573978,4.92911627 C3.39062785,4.92911627 2.32812658,6.0769971 2.13839421,6.3331358 C2.09096112,6.39005551 2.07198789,6.45646184 2.07198789,6.52286817 C2.07198789,6.5892745 2.10044774,6.65568083 2.13839421,6.71260054 C2.441966,7.07309204 2.72656456,7.42409692 2.99218987,7.80356166 C2.86886383,8.04072712 2.76451103,8.27789258 2.68861808,8.52454466 L1.21819222,8.7522235 C1.09486618,8.77119674 1,8.91349602 1,9.03682206 L1,10.7918465 C1,10.9246591 1.09486618,11.0479852 1.22767884,11.0669584 L2.66964485,11.2946372 C2.75502441,11.5602626 2.86886383,11.8164013 3.00167649,12.07254 C2.72656456,12.4425181 2.441966,12.793523 2.16685407,13.1540145 C2.1289076,13.2109342 2.10044774,13.2678539 2.10044774,13.3342602 C2.10044774,13.6093722 3.21986872,14.6244403 3.4665208,14.8521192 C3.52344051,14.8995523 3.58984684,14.9280121 3.66573978,14.9280121 C3.73214611,14.9280121 3.80803906,14.9090389 3.85547215,14.8616058 L4.97489313,14.0172967 C5.20257197,14.1311362 5.43973744,14.235489 5.68638952,14.3113819 L5.90458174,15.7628345 C5.92355498,15.8956472 6.05636763,16 6.18918029,16 L7.95369133,16 C8.08650398,16 8.2003434,15.9051338 8.23828988,15.7723212 C8.36161592,15.3074769 8.40904901,14.7857128 8.4564821,14.3018953 C8.7126208,14.2260023 8.94978626,14.1311362 9.18695172,14.0078101 L10.2779128,14.8616058 C10.3348326,14.8995523 10.4012389,14.9280121 10.4771318,14.9280121 C10.7522438,14.9280121 11.814745,13.7706447 12.0044774,13.514506 C12.0519105,13.4670729 12.0708837,13.4006665 12.0708837,13.3342602 C12.0708837,13.2583673 12.0424239,13.2014476 12.0044774,13.1445278 C11.7009056,12.7840363 11.4163071,12.4330315 11.1506817,12.0535667 C11.2740078,11.8164013 11.3783606,11.5792358 11.4542535,11.3325837 L12.9246794,11.1049049 C13.0480054,11.0859316 13.1428716,10.9436324 13.1428716,10.8203063 L13.1428716,9.06528191 Z M19.2143074,14.1216495 C19.2143074,13.9793503 17.9905336,13.8465376 17.8008013,13.8275644 C17.7249083,13.6568052 17.6300421,13.4860461 17.5162027,13.3342602 C17.6015823,13.1445278 18.0000203,12.195866 18.0000203,12.0251069 C18.0000203,12.0061336 17.9905336,11.9776738 17.9620738,11.9587005 C17.8482344,11.8922942 16.8331662,11.2946372 16.7857331,11.2946372 L16.7288134,11.3136105 C16.4062684,11.6361555 16.1216698,12.0061336 15.8560445,12.3761118 C15.7611783,12.3666251 15.6663121,12.3571385 15.5714459,12.3571385 C15.4765798,12.3571385 15.3817136,12.3666251 15.2868474,12.3761118 C15.1919812,12.2338125 14.4804848,11.2946372 14.3571588,11.2946372 C14.3097257,11.2946372 13.2946575,11.9017808 13.1808181,11.9587005 C13.1523582,11.9776738 13.1428716,12.0061336 13.1428716,12.0251069 C13.1428716,12.1863794 13.5413096,13.1445278 13.6266892,13.3342602 C13.5128497,13.4860461 13.4179836,13.6568052 13.3420906,13.8275644 C13.1523582,13.8465376 11.9285845,13.9793503 11.9285845,14.1216495 L11.9285845,15.4497761 C11.9285845,15.5920754 13.1523582,15.7248881 13.3420906,15.7438613 C13.4179836,15.9241071 13.5128497,16.0853796 13.6266892,16.2371655 C13.5413096,16.4268978 13.1428716,17.3850463 13.1428716,17.5463188 C13.1428716,17.565292 13.1523582,17.5937519 13.1808181,17.6127251 C13.2946575,17.6791315 14.3097257,18.286275 14.3571588,18.286275 C14.4804848,18.286275 15.1919812,17.3376132 15.2868474,17.1953139 C15.3817136,17.2048005 15.4765798,17.2142872 15.5714459,17.2142872 C15.6663121,17.2142872 15.7611783,17.2048005 15.8560445,17.1953139 C15.9509107,17.3376132 16.6624071,18.286275 16.7857331,18.286275 C16.8331662,18.286275 17.8482344,17.6791315 17.9620738,17.6127251 C17.9905336,17.5937519 18.0000203,17.5747787 18.0000203,17.5463188 C18.0000203,17.3755597 17.6015823,16.4268978 17.5162027,16.2371655 C17.6300421,16.0853796 17.7249083,15.9241071 17.8008013,15.7438613 C17.9905336,15.7248881 19.2143074,15.5920754 19.2143074,15.4497761 L19.2143074,14.1216495 Z M19.2143074,4.40735225 C19.2143074,4.26505298 17.9905336,4.13224032 17.8008013,4.11326708 C17.7249083,3.94250795 17.6300421,3.77174882 17.5162027,3.61996292 C17.6015823,3.43023055 18.0000203,2.48156871 18.0000203,2.31080957 C18.0000203,2.29183634 17.9905336,2.26337648 17.9620738,2.24440324 C17.8482344,2.17799692 16.8331662,1.58033995 16.7857331,1.58033995 L16.7288134,1.59931319 C16.4062684,1.92185822 16.1216698,2.29183634 15.8560445,2.66181446 C15.7611783,2.65232784 15.6663121,2.64284122 15.5714459,2.64284122 C15.4765798,2.64284122 15.3817136,2.65232784 15.2868474,2.66181446 C15.1919812,2.51951518 14.4804848,1.58033995 14.3571588,1.58033995 C14.3097257,1.58033995 13.2946575,2.18748353 13.1808181,2.24440324 C13.1523582,2.26337648 13.1428716,2.29183634 13.1428716,2.31080957 C13.1428716,2.47208209 13.5413096,3.43023055 13.6266892,3.61996292 C13.5128497,3.77174882 13.4179836,3.94250795 13.3420906,4.11326708 C13.1523582,4.13224032 11.9285845,4.26505298 11.9285845,4.40735225 L11.9285845,5.73547884 C11.9285845,5.87777811 13.1523582,6.01059077 13.3420906,6.02956401 C13.4179836,6.20980976 13.5128497,6.37108227 13.6266892,6.52286817 C13.5413096,6.71260054 13.1428716,7.670749 13.1428716,7.83202151 C13.1428716,7.85099475 13.1523582,7.87945461 13.1808181,7.89842784 C13.2946575,7.96483417 14.3097257,8.57197775 14.3571588,8.57197775 C14.4804848,8.57197775 15.1919812,7.62331591 15.2868474,7.48101663 C15.3817136,7.49050325 15.4765798,7.49998987 15.5714459,7.49998987 C15.6663121,7.49998987 15.7611783,7.49050325 15.8560445,7.48101663 C15.9509107,7.62331591 16.6624071,8.57197775 16.7857331,8.57197775 C16.8331662,8.57197775 17.8482344,7.96483417 17.9620738,7.89842784 C17.9905336,7.87945461 18.0000203,7.86048137 18.0000203,7.83202151 C18.0000203,7.66126238 17.6015823,6.71260054 17.5162027,6.52286817 C17.6300421,6.37108227 17.7249083,6.20980976 17.8008013,6.02956401 C17.9905336,6.01059077 19.2143074,5.87777811 19.2143074,5.73547884 L19.2143074,4.40735225 Z"></path></g></svg>