<svg height="100%" viewBox="0 0 20 20" width="100%" xmlns="http://www.w3.org/2000/svg" preserveAspectRatio="xMidYMid meet"><g id="icon-heart-line" fill-rule="evenodd"><path d="M4.5569391,9.43397033 C3.599798,8.47682924 3.599798,6.92499691 4.5569391,5.96785582 C5.51408019,5.01071473 7.06591252,5.01071473 8.02305361,5.96785582 L10.0623086,8.0071108 L12.1015635,5.96785589 C13.0587047,5.01071474 14.610537,5.01071472 15.5676781,5.96785582 C16.5248192,6.92499691 16.5248192,8.47682924 15.5676781,9.43397033 L10.0623086,14.9393398 L4.5569391,9.43397033 Z M9.08371378,4.90719565 C7.54078625,3.36426812 5.03920646,3.36426812 3.49627892,4.90719565 C1.95335139,6.45012318 1.95335139,8.95170297 3.49627892,10.4946305 L10.0623086,17.0606602 L16.6283383,10.4946305 C18.1712658,8.95170297 18.1712658,6.45012318 16.6283383,4.90719565 C15.0854107,3.3642681 12.5838309,3.36426813 11.0409033,4.90719572 L10.0623086,5.88579046 L9.08371378,4.90719565 Z" id="icon-heart"></path></g></svg>