<svg width="24" height="24" viewBox="0 0 24 24" fill="none" xmlns="http://www.w3.org/2000/svg">
<path d="M19 3H5C3.89 3 3 3.89 3 5V19C3 19.5304 3.21071 20.0391 3.58579 20.4142C3.96086 20.7893 4.46957 21 5 21H19C19.5304 21 20.0391 20.7893 20.4142 20.4142C20.7893 20.0391 21 19.5304 21 19V5C21 3.89 20.1 3 19 3Z" fill="white"/>
<path d="M6.5 10.5H7.5V11.5H6.5V10.5Z" fill="#ED4647"/>
<path d="M6.5 10.5H7.5V11.5H6.5V10.5Z" fill="black" fill-opacity="0.1"/>
<path d="M12.5 10.5H11.5V13.5H12.5V10.5Z" fill="#ED4647"/>
<path d="M12.5 10.5H11.5V13.5H12.5V10.5Z" fill="black" fill-opacity="0.1"/>
<path fill-rule="evenodd" clip-rule="evenodd" d="M21 5C21 3.9 20.1 3 19 3H5C3.9 3 3 3.9 3 5V19C3 20.1 3.9 21 5 21H19C20.1 21 21 20.1 21 19V5ZM5 9.75C5 9.33579 5.33579 9 5.75 9C5.78943 9 5.82816 9.00304 5.86595 9.00891C5.90979 9.00303 5.95454 9 6 9H8C8.55229 9 9 9.44771 9 10V12C9 12.5523 8.55229 13 8 13H6.5V14.25C6.5 14.6642 6.16421 15 5.75 15C5.33579 15 5 14.6642 5 14.25V9.75ZM10.25 9C10.1119 9 10 9.11193 10 9.25V14.75C10 14.8881 10.1119 15 10.25 15H12.5C13.3284 15 14 14.3284 14 13.5V10.5C14 9.67157 13.3284 9 12.5 9H10.25ZM15 9.75C15 9.33579 15.3358 9 15.75 9H18.25C18.6642 9 19 9.33579 19 9.75C19 10.1642 18.6642 10.5 18.25 10.5H16.5V11.5H17.25C17.6642 11.5 18 11.8358 18 12.25C18 12.6642 17.6642 13 17.25 13H16.5V14.25C16.5 14.6642 16.1642 15 15.75 15C15.3358 15 15 14.6642 15 14.25V9.75Z" fill="#ED4647"/>
<path fill-rule="evenodd" clip-rule="evenodd" d="M21 5C21 3.9 20.1 3 19 3H5C3.9 3 3 3.9 3 5V19C3 20.1 3.9 21 5 21H19C20.1 21 21 20.1 21 19V5ZM5 9.75C5 9.33579 5.33579 9 5.75 9C5.78943 9 5.82816 9.00304 5.86595 9.00891C5.90979 9.00303 5.95454 9 6 9H8C8.55229 9 9 9.44771 9 10V12C9 12.5523 8.55229 13 8 13H6.5V14.25C6.5 14.6642 6.16421 15 5.75 15C5.33579 15 5 14.6642 5 14.25V9.75ZM10.25 9C10.1119 9 10 9.11193 10 9.25V14.75C10 14.8881 10.1119 15 10.25 15H12.5C13.3284 15 14 14.3284 14 13.5V10.5C14 9.67157 13.3284 9 12.5 9H10.25ZM15 9.75C15 9.33579 15.3358 9 15.75 9H18.25C18.6642 9 19 9.33579 19 9.75C19 10.1642 18.6642 10.5 18.25 10.5H16.5V11.5H17.25C17.6642 11.5 18 11.8358 18 12.25C18 12.6642 17.6642 13 17.25 13H16.5V14.25C16.5 14.6642 16.1642 15 15.75 15C15.3358 15 15 14.6642 15 14.25V9.75Z" fill="black" fill-opacity="0.1"/>
</svg>
