<svg width="24" height="24" viewBox="0 0 24 24" fill="none" xmlns="http://www.w3.org/2000/svg">
<path d="M19 3H5C3.89 3 3 3.89 3 5V19C3 19.5304 3.21071 20.0391 3.58579 20.4142C3.96086 20.7893 4.46957 21 5 21H19C19.5304 21 20.0391 20.7893 20.4142 20.4142C20.7893 20.0391 21 19.5304 21 19V5C21 3.89 20.1 3 19 3Z" fill="white"/>
<path fill-rule="evenodd" clip-rule="evenodd" d="M5 3C3.89543 3 3 3.89543 3 5V19C3 20.1046 3.89543 21 5 21H19C20.1046 21 21 20.1046 21 19V5C21 3.89543 20.1046 3 19 3H5ZM17.9963 10.6912L12.9263 14.6362C12.3863 15.0637 11.6213 15.0637 11.0813 14.6437L6.01125 10.6987C5.62875 10.3987 5.62875 9.81372 6.01125 9.51372L11.0813 5.56122C11.6288 5.14122 12.3863 5.14122 12.9263 5.56122L17.9963 9.50622C18.3788 9.80622 18.3788 10.3912 17.9963 10.6912ZM11.5313 16.9012C11.8013 17.1112 12.1838 17.1112 12.4538 16.9012L17.0663 13.3087C17.3351 13.0987 17.7124 13.0987 17.9813 13.3087L17.9888 13.3162C18.3713 13.6162 18.3713 14.1937 17.9888 14.4937L12.9188 18.4387C12.3713 18.8587 11.6138 18.8587 11.0738 18.4387L6.00379 14.4937C5.62129 14.1937 5.62129 13.6162 6.00379 13.3162C6.27265 13.1062 6.64994 13.1062 6.91879 13.3162L11.5313 16.9012Z" fill="#009DFF"/>
<path fill-rule="evenodd" clip-rule="evenodd" d="M11.5313 16.9011C11.8013 17.1111 12.1838 17.1111 12.4538 16.9011L17.0663 13.3086C17.3351 13.0986 17.7124 13.0986 17.9813 13.3086L17.9888 13.3161C18.3713 13.6161 18.3713 14.1936 17.9888 14.4936L12.9188 18.4386C12.3713 18.8586 11.6138 18.8586 11.0738 18.4386L6.00379 14.4936C5.62129 14.1936 5.62129 13.6161 6.00379 13.3161C6.27265 13.1061 6.64994 13.1061 6.91879 13.3161L11.5313 16.9011Z" fill="#009DFF"/>
<path fill-rule="evenodd" clip-rule="evenodd" d="M11.5313 16.9011C11.8013 17.1111 12.1838 17.1111 12.4538 16.9011L17.0663 13.3086C17.3351 13.0986 17.7124 13.0986 17.9813 13.3086L17.9888 13.3161C18.3713 13.6161 18.3713 14.1936 17.9888 14.4936L12.9188 18.4386C12.3713 18.8586 11.6138 18.8586 11.0738 18.4386L6.00379 14.4936C5.62129 14.1936 5.62129 13.6161 6.00379 13.3161C6.27265 13.1061 6.64994 13.1061 6.91879 13.3161L11.5313 16.9011Z" fill="white" fill-opacity="0.8"/>
</svg>
