<svg preserveAspectRatio="xMidYMid meet" height="100%" width="100%" xmlns="http://www.w3.org/2000/svg" viewBox="0 0 24 32" xmlns:xlink="http://www.w3.org/1999/xlink"><defs><path id="b" d="M24,9 L18,9 L18,9 C16.3431458,9 15,7.65685425 15,6 L15,-1.0658141e-14 L24,9 Z"/><filter id="a" width="133.3%" height="133.3%" x="-16.7%" y="-16.7%" filterUnits="objectBoundingBox"><feOffset in="SourceAlpha" result="shadowOffsetOuter1"/><feGaussianBlur stdDeviation=".5" in="shadowOffsetOuter1" result="shadowBlurOuter1"/><feComposite in="shadowBlurOuter1" in2="SourceAlpha" operator="out" result="shadowBlurOuter1"/><feColorMatrix values="0 0 0 0 0 0 0 0 0 0 0 0 0 0 0 0 0 0 0.25 0" in="shadowBlurOuter1"/></filter><linearGradient id="c" x1="0%" y1="0%" y2="100%"><stop stop-color="#000000" stop-opacity=".2" offset="0%"/><stop stop-color="#000000" stop-opacity="0" offset="100%"/></linearGradient></defs><g fill="none" fill-rule="evenodd"><path fill="#4285F4" d="M3,1.06586616e-15 L15,0 L24,9 L24,29 L24,29 C24,30.6568542 22.6568542,32 21,32 L3,32 L3,32 C1.34314575,32 2.02906125e-16,30.6568542 0,29 L0,3 L4.4408921e-16,3 C2.41183085e-16,1.34314575 1.34314575,2.52480524e-15 3,2.22044605e-15 Z"/><use fill="black" filter="url(#a)" xlink:href="#b"/><use fill="#FFFFFF" fill-opacity=".4" style="mix-blend-mode:lighten" xlink:href="#b"/><path fill="url(#c)" d="M24,9 L18,9 C17.1523823,9 16.3868673,8.64847631 15.8412861,8.08325999 C15.4940351,7.72351158 18.2136064,10.3624249 24,16 L24,9 Z" style="mix-blend-mode:hard-light"/><path fill="#F1F1F1" fill-rule="nonzero" d="M6,22.5 L18,22.5 L18,21 L6,21 L6,22.5 Z M6,25.5 L15,25.5 L15,24 L6,24 L6,25.5 Z M6,15 L6,16.5 L18,16.5 L18,15 L6,15 Z M6,19.5 L18,19.5 L18,18 L6,18 L6,19.5 Z"/></g></svg>