<svg width="24" height="24" viewBox="0 0 24 24" fill="none" xmlns="http://www.w3.org/2000/svg">
<path d="M19 3H5C3.89 3 3 3.89 3 5V19C3 19.5304 3.21071 20.0391 3.58579 20.4142C3.96086 20.7893 4.46957 21 5 21H19C19.5304 21 20.0391 20.7893 20.4142 20.4142C20.7893 20.0391 21 19.5304 21 19V5C21 3.89 20.1 3 19 3Z" fill="white"/>
<path fill-rule="evenodd" clip-rule="evenodd" d="M5 3C3.89543 3 3 3.89543 3 5V19C3 20.1046 3.89543 21 5 21H19C20.1046 21 21 20.1046 21 19V5C21 3.89543 20.1046 3 19 3H5ZM8.46447 15.5355C7.68342 14.7545 7.68342 13.4882 8.46447 12.7071L9.17157 12C9.5621 11.6095 9.5621 10.9763 9.17157 10.5858C8.78105 10.1953 8.14788 10.1953 7.75736 10.5858L7.05025 11.2929C5.48816 12.855 5.48816 15.3877 7.05025 16.9497C8.61235 18.5118 11.145 18.5118 12.7071 16.9497L13.4142 16.2426C13.8047 15.8521 13.8047 15.219 13.4142 14.8284C13.0237 14.4379 12.3905 14.4379 12 14.8284L11.2929 15.5355C10.5118 16.3166 9.24551 16.3166 8.46447 15.5355ZM9.87868 12.7071C9.48816 13.0976 9.48816 13.7308 9.87868 14.1213C10.2692 14.5118 10.9024 14.5118 11.2929 14.1213L14.1213 11.2929C14.5118 10.9024 14.5118 10.2692 14.1213 9.87868C13.7308 9.48816 13.0976 9.48816 12.7071 9.87868L9.87868 12.7071ZM12.7071 8.46447C13.4882 7.68342 14.7545 7.68342 15.5355 8.46447C16.3166 9.24551 16.3166 10.5118 15.5355 11.2929L14.8284 12C14.4379 12.3905 14.4379 13.0237 14.8284 13.4142C15.219 13.8047 15.8521 13.8047 16.2426 13.4142L16.9497 12.7071C18.5118 11.145 18.5118 8.61235 16.9497 7.05025C15.3876 5.48816 12.855 5.48816 11.2929 7.05025L10.5858 7.75736C10.1953 8.14788 10.1953 8.78105 10.5858 9.17157C10.9763 9.5621 11.6095 9.5621 12 9.17157L12.7071 8.46447Z" fill="#009DFF"/>
<path fill-rule="evenodd" clip-rule="evenodd" d="M5 3C3.89543 3 3 3.89543 3 5V19C3 20.1046 3.89543 21 5 21H19C20.1046 21 21 20.1046 21 19V5C21 3.89543 20.1046 3 19 3H5ZM8.46447 15.5355C7.68342 14.7545 7.68342 13.4882 8.46447 12.7071L9.17157 12C9.5621 11.6095 9.5621 10.9763 9.17157 10.5858C8.78105 10.1953 8.14788 10.1953 7.75736 10.5858L7.05025 11.2929C5.48816 12.855 5.48816 15.3877 7.05025 16.9497C8.61235 18.5118 11.145 18.5118 12.7071 16.9497L13.4142 16.2426C13.8047 15.8521 13.8047 15.219 13.4142 14.8284C13.0237 14.4379 12.3905 14.4379 12 14.8284L11.2929 15.5355C10.5118 16.3166 9.24551 16.3166 8.46447 15.5355ZM9.87868 12.7071C9.48816 13.0976 9.48816 13.7308 9.87868 14.1213C10.2692 14.5118 10.9024 14.5118 11.2929 14.1213L14.1213 11.2929C14.5118 10.9024 14.5118 10.2692 14.1213 9.87868C13.7308 9.48816 13.0976 9.48816 12.7071 9.87868L9.87868 12.7071ZM12.7071 8.46447C13.4882 7.68342 14.7545 7.68342 15.5355 8.46447C16.3166 9.24551 16.3166 10.5118 15.5355 11.2929L14.8284 12C14.4379 12.3905 14.4379 13.0237 14.8284 13.4142C15.219 13.8047 15.8521 13.8047 16.2426 13.4142L16.9497 12.7071C18.5118 11.145 18.5118 8.61235 16.9497 7.05025C15.3876 5.48816 12.855 5.48816 11.2929 7.05025L10.5858 7.75736C10.1953 8.14788 10.1953 8.78105 10.5858 9.17157C10.9763 9.5621 11.6095 9.5621 12 9.17157L12.7071 8.46447Z" fill="black" fill-opacity="0.2"/>
</svg>
