<svg height="100%" viewBox="0 0 20 20" width="100%" xmlns="http://www.w3.org/2000/svg" preserveAspectRatio="xMidYMid meet"><g id="icon-panel-close" fill-rule="evenodd"><path d="M18.0008785,3 L2.00790668,3 C0.903392064,3 0.0187808092,3.89460686 0.0187808092,4.99912148 L0,14.4738396 C0,15.5783542 0.894606862,16.4729611 1.99912148,16.4729611 L17.9920933,16.4729611 C19.0966079,16.4729611 19.9912148,15.5783542 19.9912148,14.4738396 L20,4.99912148 C20,3.89460686 19.1053931,3 18.0008785,3 Z M11.4949485,14.4738396 L2.01689703,14.4738396 L1.99912148,4.97801259 L11.477173,4.97801259 L11.4949485,14.4738396 Z M13.7864415,7.5593782 L16.0779345,9.8508712 L13.7864415,12.1423642 L14.4936307,12.8495534 L17.4923129,9.8508712 L14.4936307,6.85218898 L13.7864415,7.5593782 Z" id="shape"></path></g></svg>