<svg viewBox="0 0 24 24" xmlns="http://www.w3.org/2000/svg">
<path d="M9.11 8.2925L10.99 6.4125V15.0825C10.99 15.6325 11.44 16.0825 11.99 16.0825C12.54 16.0825 12.99 15.6325 12.99 15.0825V6.4125L14.88 8.2925C15.27 8.6825 15.9 8.6825 16.29 8.2925C16.4773 8.10567 16.5825 7.85202 16.5825 7.5875C16.5825 7.32298 16.4773 7.06933 16.29 6.8825L12.7 3.2925C12.31 2.9025 11.68 2.9025 11.29 3.2925L7.7 6.8825C7.31 7.2725 7.31 7.9025 7.7 8.2925C8.09 8.6825 8.72 8.6825 9.11 8.2925ZM19 18V15C19 14.45 19.45 14 20 14C20.55 14 21 14.45 21 15V19C21 20.1 20.1 21 19 21H5C3.9 21 3 20.1 3 19V15C3 14.45 3.45 14 4 14C4.55 14 5 14.45 5 15V18C5 18.55 5.45 19 6 19H18C18.55 19 19 18.55 19 18Z"/>
</svg>
