<svg width="24" height="24" viewBox="0 0 24 24" fill="none" xmlns="http://www.w3.org/2000/svg">
<path d="M19 3H5C3.89 3 3 3.89 3 5V19C3 19.5304 3.21071 20.0391 3.58579 20.4142C3.96086 20.7893 4.46957 21 5 21H19C19.5304 21 20.0391 20.7893 20.4142 20.4142C20.7893 20.0391 21 19.5304 21 19V5C21 3.89 20.1 3 19 3Z" fill="white"/>
<path fill-rule="evenodd" clip-rule="evenodd" d="M19 3C20.1046 3 21 3.89543 21 5V19C21 20.1046 20.1046 21 19 21H5C3.89543 21 3 20.1046 3 19V5C3 3.89 3.9 3 5 3H19ZM9.8 13.4H12.3C13.8 13.4 14.46 13.12 15.1 12.58C15.74 12.03 16 11.25 16 10.23C16 9.26 15.75 8.5 15.1 7.88C14.45 7.29 13.83 7 12.3 7H8V17H9.8V13.4ZM9.8 8.4V12H12.22C12.9 12 13.28 11.81 13.6 11.5C13.92 11.19 14.1 10.8 14.1 10.24C14.1 9.72 13.93 9.35 13.6 9C13.27 8.65 12.76 8.4 12.1 8.4H9.8Z" fill="#D24625"/>
</svg>
