<svg preserveAspectRatio="xMidYMid meet" height="100%" width="100%" xmlns="http://www.w3.org/2000/svg" viewBox="0 0 24 32" xmlns:xlink="http://www.w3.org/1999/xlink"><defs><path id="b" d="M24,9 L18,9 L18,9 C16.3431458,9 15,7.65685425 15,6 L15,-1.0658141e-14 L24,9 Z"/><filter id="a" width="133.3%" height="133.3%" x="-16.7%" y="-16.7%" filterUnits="objectBoundingBox"><feOffset in="SourceAlpha" result="shadowOffsetOuter1"/><feGaussianBlur stdDeviation=".5" in="shadowOffsetOuter1" result="shadowBlurOuter1"/><feComposite in="shadowBlurOuter1" in2="SourceAlpha" operator="out" result="shadowBlurOuter1"/><feColorMatrix values="0 0 0 0 0 0 0 0 0 0 0 0 0 0 0 0 0 0 0.25 0" in="shadowBlurOuter1"/></filter><linearGradient id="c" x1="0%" y1="0%" y2="100%"><stop stop-color="#000000" stop-opacity=".2" offset="0%"/><stop stop-color="#000000" stop-opacity="0" offset="100%"/></linearGradient></defs><g fill="none" fill-rule="evenodd"><path fill="#DB4437" d="M3,1.06586616e-15 L15,0 L24,9 L24,29 L24,29 C24,30.6568542 22.6568542,32 21,32 L3,32 L3,32 C1.34314575,32 2.02906125e-16,30.6568542 0,29 L0,3 L4.4408921e-16,3 C2.41183085e-16,1.34314575 1.34314575,2.52480524e-15 3,2.22044605e-15 Z"/><use fill="black" filter="url(#a)" xlink:href="#b"/><use fill="#FFFFFF" fill-opacity=".4" style="mix-blend-mode:lighten" xlink:href="#b"/><path fill="url(#c)" d="M24,9 L18,9 C17.1523823,9 16.3868673,8.64847631 15.8412861,8.08325999 C15.4940351,7.72351158 18.2136064,10.3624249 24,16 L24,9 Z" style="mix-blend-mode:hard-light"/><path fill="#F1F1F1" fill-rule="nonzero" d="M13.3333333,17.6666667 C13.3333333,15.6416667 11.6916667,14 9.66666667,14 C7.64166667,14 6,15.6416667 6,17.6666667 C6,19.6916667 7.64166667,21.3333333 9.66666667,21.3333333 C11.6916667,21.3333333 13.3333333,19.6916667 13.3333333,17.6666667 Z M9.66666667,20 C8.38,20 7.33333333,18.9533333 7.33333333,17.6666667 C7.33333333,16.38 8.38,15.3333333 9.66666667,15.3333333 C10.9533333,15.3333333 12,16.38 12,17.6666667 C12,18.9533333 10.9533333,20 9.66666667,20 Z M14.3816667,19.3333333 C13.9616667,20.5233333 13.1033333,21.505 12,22.0883333 L12,25.3333333 L18,25.3333333 L18,19.3333333 L14.3816667,19.3333333 Z"/></g></svg>