<svg height="100%" viewBox="0 0 20 20" width="100%" xmlns="http://www.w3.org/2000/svg" preserveAspectRatio="xMidYMid meet"><g id="icon-comment" fill-rule="evenodd"><path d="M5.90280646,13.5 L4.75477099,13.5 C4.06132785,13.5 3.5,12.9401089 3.5,12.2503154 L3.5,5.74968461 C3.5,5.05962154 4.06115734,4.5 4.75585866,4.5 L14.7441413,4.5 C15.438276,4.5 16,5.05998242 16,5.74968461 L16,12.2503154 C16,12.9403114 15.4415205,13.5 14.7557297,13.5 L8.77915339,13.5 L6.59996516,15.6172204 L5.90280646,13.5 Z M5.92524236,18.3641334 L9.38783879,15 L14.7557297,15 C16.2706747,15 17.5,13.7680132 17.5,12.2503154 L17.5,5.74968461 C17.5,4.2305108 16.2656622,3 14.7441413,3 L4.75585866,3 C3.23364908,3 2,4.23027276 2,5.74968461 L2,12.2503154 C2,13.7693978 3.23376009,15 4.75477099,15 L4.81749994,15 L5.92524236,18.3641334 Z M5.0625,11.25 L14.4375,11.25 L14.4375,9.75 L5.0625,9.75 L5.0625,11.25 Z M5.0625,8.25 L14.4375,8.25 L14.4375,6.75 L5.0625,6.75 L5.0625,8.25 Z"></path></g></svg>