<svg height="100%" viewBox="0 0 20 20" width="100%" xmlns="http://www.w3.org/2000/svg" preserveAspectRatio="xMidYMid meet"><g id="icon-drag-handle-horizontal" fill-rule="evenodd"><path d="M4,8.5 C4.82842712,8.5 5.5,7.82842712 5.5,7 C5.5,6.17157288 4.82842712,5.5 4,5.5 C3.17157288,5.5 2.5,6.17157288 2.5,7 C2.5,7.82842712 3.17157288,8.5 4,8.5 Z M4,14.5 C4.82842712,14.5 5.5,13.8284271 5.5,13 C5.5,12.1715729 4.82842712,11.5 4,11.5 C3.17157288,11.5 2.5,12.1715729 2.5,13 C2.5,13.8284271 3.17157288,14.5 4,14.5 Z M10,14.5 C10.8284271,14.5 11.5,13.8284271 11.5,13 C11.5,12.1715729 10.8284271,11.5 10,11.5 C9.17157288,11.5 8.5,12.1715729 8.5,13 C8.5,13.8284271 9.17157288,14.5 10,14.5 Z M16,14.5 C16.8284271,14.5 17.5,13.8284271 17.5,13 C17.5,12.1715729 16.8284271,11.5 16,11.5 C15.1715729,11.5 14.5,12.1715729 14.5,13 C14.5,13.8284271 15.1715729,14.5 16,14.5 Z M10,8.5 C10.8284271,8.5 11.5,7.82842712 11.5,7 C11.5,6.17157288 10.8284271,5.5 10,5.5 C9.17157288,5.5 8.5,6.17157288 8.5,7 C8.5,7.82842712 9.17157288,8.5 10,8.5 Z M16,8.5 C16.8284271,8.5 17.5,7.82842712 17.5,7 C17.5,6.17157288 16.8284271,5.5 16,5.5 C15.1715729,5.5 14.5,6.17157288 14.5,7 C14.5,7.82842712 15.1715729,8.5 16,8.5 Z" id="Combined-Shape"></path></g></svg>