<svg width="18" height="12" viewBox="0 0 18 12" xmlns="http://www.w3.org/2000/svg">
<path d="M2.48835 10.8038L6.90502 6.3871L9.61335 9.09543C9.95502 9.4371 10.505 9.42043 10.8217 9.0621L16.7967 2.3371C17.0884 2.0121 17.0717 1.5121 16.7634 1.19543C16.43 0.862098 15.8717 0.870432 15.555 1.22876L10.23 7.2121L7.48835 4.47043C7.33266 4.31439 7.12128 4.22669 6.90085 4.22669C6.68042 4.22669 6.46904 4.31439 6.31335 4.47043L1.23835 9.55376C0.913348 9.87876 0.913348 10.4038 1.23835 10.7288L1.31335 10.8038C1.63835 11.1288 2.17168 11.1288 2.48835 10.8038Z" fill="#434F59"/>
</svg>
