<svg height="100%" viewBox="0 0 20 20" width="100%" xmlns="http://www.w3.org/2000/svg" preserveAspectRatio="xMidYMid meet"><g id="icon-pagegroup" fill-rule="evenodd"><path d="M14.5,3 L5.5,3 C4.675,3 4,3.675 4,4.5 L4,15 L5.5,15 L5.5,4.5 L14.5,4.5 L14.5,3 Z M11.5,0 L2.5,0 C1.675,0 1,0.675 1,1.5 L1,12 L2.5,12 L2.5,1.5 L11.5,1.5 L11.5,0 Z M16.75,6 L8.5,6 C7.675,6 7,6.675 7,7.5 L7,18 C7,18.825 7.675,19.5 8.5,19.5 L16.75,19.5 C17.575,19.5 18.25,18.825 18.25,18 L18.25,7.5 C18.25,6.675 17.575,6 16.75,6 Z M16.75,18 L8.5,18 L8.5,7.5 L16.75,7.5 L16.75,18 Z"></path></g></svg>