<svg height="100%" viewBox="0 0 37 30" width="100%" xmlns="http://www.w3.org/2000/svg" preserveAspectRatio="xMidYMid meet"><g id="icon-people-30px" fill-rule="evenodd"><path d="M33.8192969,16.0893908 C33.0519531,16.6369223 32.1477344,16.6440126 31.2677344,16.7279149 C30.9601563,17.7446691 31.1999219,18.2097952 32.1960156,18.4944328 C32.5707813,18.6014968 32.9571094,18.6666492 33.3369531,18.7565389 C34.9103906,19.1290966 36.0153125,20.449396 35.9916406,21.9637342 C35.8842188,21.9711397 35.7733594,21.9851628 35.6625,21.9852416 C33.8004688,21.9866597 31.9385156,21.9851628 30.0765625,21.9878414 C29.88875,21.9880777 29.7778125,21.9543592 29.6463281,21.763708 C28.7215625,20.4224527 27.5446875,19.4526523 25.8476563,19.3198267 C25.7698438,19.3137605 25.68,19.3300683 25.6167188,19.2961134 C25.5004688,19.2337973 25.3242188,19.1514706 25.3126563,19.0596113 C25.299375,18.9542805 25.4136719,18.7941964 25.5167188,18.7220326 C25.6503125,18.6284401 25.8246875,18.5877101 25.9867188,18.5434349 C26.1871875,18.4887605 26.3953125,18.462605 26.5961719,18.4086397 C27.5875,18.1423582 27.6657031,18.1311712 27.5440625,16.875709 C26.8764844,16.7208246 26.2114063,16.6062763 25.5724219,16.406959 C24.9576563,16.2152048 24.9532031,16.1269695 25.236875,15.5424895 C25.613125,14.7670431 25.6650781,13.9292017 25.6870313,13.0872637 C25.7109375,12.1693015 25.6910938,11.2481092 25.7601563,10.3336922 C25.9359375,8.00806197 27.2671094,6.81200105 29.5817969,6.8480042 C31.6560938,6.88022584 32.9685156,8.1626313 33.1008594,10.325105 C33.1432031,11.0172006 33.1196875,11.7143382 33.1071094,12.4087973 C33.0721094,14.3457983 33.0770313,14.3922794 33.8192969,16.0893908 Z M1.02359375,21.9863445 C0.951484375,20.4828782 2.11445312,19.0964023 3.68632812,18.7559086 C4.10515625,18.6651523 4.526875,18.579438 4.93648437,18.4553571 C5.68804687,18.2276786 5.82148437,18.0252889 5.8028125,17.2370798 C5.79914062,17.080541 5.780625,16.9242384 5.76789062,16.7539128 C5.35046875,16.7138918 4.93476562,16.7092437 4.5353125,16.6257353 C4.15828125,16.5470326 3.7959375,16.3919905 3.43164062,16.2581408 C3.2159375,16.1788866 3.16296875,16.0121061 3.28632812,15.8205095 C3.9840625,14.7367122 3.87804687,13.5182773 3.88976562,12.3136292 C3.8984375,11.4247374 3.84953125,10.5170956 4.00734375,9.65144433 C4.41421875,7.41972164 6.11984375,6.70028887 7.98195312,6.90228466 C10.1236719,7.13476891 11.2367969,8.47035189 11.2964062,10.7866859 C11.3166406,11.5732405 11.2967187,12.3607405 11.3005469,13.1479254 C11.3050781,14.0759716 11.4176562,14.9799107 11.9278906,15.7856092 C12.074375,16.0169118 11.9832812,16.1790441 11.7628125,16.2399422 C11.1295312,16.4146796 10.4948437,16.5968225 9.84921875,16.7090861 C9.42140625,16.7833771 9.36898437,16.7808561 9.39414062,17.2351891 C9.44171875,18.0939076 9.45632812,18.1010767 10.2725781,18.3103204 C10.6610937,18.4099002 11.0490625,18.5253939 11.4184375,18.6796481 C11.5442969,18.7321954 11.6126562,18.9249737 11.7072656,19.0537815 C11.5789062,19.1164916 11.4547656,19.2222952 11.3214844,19.2355305 C9.64851562,19.4018382 8.41,20.2690651 7.49007812,21.6429359 C7.32960937,21.8826681 7.16898437,21.9970588 6.86523437,21.9943803 C5.04351562,21.9781513 3.2215625,21.9863445 1.39960937,21.9863445 L1.02359375,21.9863445 Z" id="left-right" fill-opacity="0.8"></path><path d="M14.5800781,13.9642595 C14.2089063,13.9595326 14.0071094,13.7335872 13.9307813,13.4251576 C13.74875,12.6895746 13.5782813,11.9494223 13.4489844,11.2030462 C13.4005469,10.9236082 13.4607813,10.6108456 13.8396094,10.5470326 C13.499375,9.50514706 13.3890625,8.45561975 13.4765625,7.3896271 C13.6385156,5.41512605 14.70125,4.10782563 16.5129688,3.44220063 C18.1894531,2.82620798 19.8451563,2.94603466 21.3925781,3.87675945 C22.8303906,4.74146534 23.5378125,6.07783613 23.5469531,7.73870798 C23.5520313,8.65863971 23.3778906,9.57943803 23.2791406,10.5531775 C23.5580469,10.6270746 23.5928906,10.9577206 23.5319531,11.281355 C23.396875,12.0004727 23.233125,12.7147059 23.0586719,13.4254727 C22.9823438,13.7364233 22.79375,13.9675683 22.4385156,13.9633141 C22.3744531,14.4363183 22.3248438,14.8922269 22.248125,15.3434874 C22.1566406,15.8815651 21.9484375,16.3583508 21.5699219,16.7740809 C21.4053906,16.9548057 21.3011719,17.2506303 21.28875,17.5001313 C21.2660938,17.9551733 21.331875,18.4146271 21.3617188,18.8722689 C21.3910938,19.3226628 21.6325,19.6022584 22.0591406,19.7071954 C23.0424219,19.9490546 24.0250781,20.1947742 25.0135938,20.4129989 C27.5169531,20.9655725 29.2701563,23.0131828 29.3513281,25.5012605 C29.3538281,25.5770483 29.3516406,25.6529937 29.3516406,25.7476103 L7.63890625,25.7476103 C7.67351563,24.1914391 8.17632813,22.8658613 9.3040625,21.8045956 C10.2480469,20.9162553 11.42625,20.5748162 12.6521094,20.331145 C13.3398438,20.194459 14.0221875,20.0272059 14.7024219,19.855541 C15.3554688,19.69073 15.6792188,19.2527048 15.6838281,18.5730567 C15.6850781,18.3894958 15.6805469,18.203729 15.7058594,18.0228466 C15.7778125,17.5076943 15.6913281,17.07802 15.3207031,16.6578782 C14.726875,15.9846901 14.730625,15.0871324 14.6067188,14.2477941 C14.5954688,14.1701155 14.591875,14.0914916 14.5800781,13.9642595 L14.5800781,13.9642595 Z" id="middle" fill-opacity="1.0"></path></g></svg>