<svg viewBox="0 0 24 24" xmlns="http://www.w3.org/2000/svg">
<path d="M13.795 10.205C13.4056 9.81564 13.4056 9.18436 13.795 8.795L17.59 5H15C14.4477 5 14 4.55228 14 4C14 3.44772 14.4477 3 15 3H20C20.5523 3 21 3.44772 21 4V9C21 9.55229 20.5523 10 20 10C19.4477 10 19 9.55228 19 9V6.41L15.205 10.205C14.8156 10.5944 14.1844 10.5944 13.795 10.205Z M10.205 13.795C10.5943 14.1844 10.5943 14.8156 10.205 15.205L6.40997 19H8.99997C9.55225 19 9.99997 19.4477 9.99997 20C9.99997 20.5523 9.55225 21 8.99997 21H3.99997C3.44769 21 2.99997 20.5523 2.99997 20L2.99997 15C2.99997 14.4477 3.44768 14 3.99997 14C4.55225 14 4.99997 14.4477 4.99997 15L4.99997 17.59L8.79497 13.795C9.18433 13.4056 9.81561 13.4056 10.205 13.795Z"/>
</svg>
