<svg height="100%" viewBox="0 0 24 20" width="100%" xmlns="http://www.w3.org/2000/svg" preserveAspectRatio="xMidYMid meet"><g id="icon-members" fill-rule="evenodd"><path d="M21.6331831,11.1340907 C21.150461,11.4759284 20.5816334,11.480355 20.0280413,11.5327374 C19.8345495,12.1675226 19.9853817,12.4579125 20.6120062,12.6356189 C20.8477645,12.7024617 21.0907965,12.7431379 21.3297494,12.7992583 C22.3195704,13.0318555 23.0146568,13.8561516 22.9997653,14.8015911 C22.9321881,14.8062145 22.8624485,14.8149694 22.7927088,14.8150186 C21.6213387,14.815904 20.4500176,14.8149694 19.2786966,14.8166417 C19.1605472,14.8167893 19.0907584,14.795738 19.0080439,14.6767096 C18.4262906,13.8393302 17.6859398,13.2338595 16.6183682,13.1509331 C16.5694177,13.1471458 16.5128987,13.1573272 16.4730896,13.1361283 C16.3999588,13.0972227 16.2890831,13.0458241 16.2818094,12.9884741 C16.2734544,12.9227134 16.3453565,12.8227689 16.4101814,12.7777152 C16.4942228,12.7192831 16.603919,12.6938543 16.7058499,12.6662121 C16.8319611,12.6320776 16.9628888,12.615748 17.0892458,12.5820561 C17.7128724,12.4158099 17.7620686,12.4088256 17.6855467,11.625009 C17.2655853,11.5283107 16.8471967,11.4567953 16.4452232,11.3323565 C16.0584853,11.2126396 16.0556839,11.1575521 16.2341367,10.7926465 C16.4708288,10.3085158 16.5035116,9.78543031 16.5173219,9.25978723 C16.5323609,8.68668035 16.5198775,8.11155688 16.5633235,7.54066334 C16.6739043,6.08871389 17.5113205,5.34198297 18.9674485,5.36446065 C20.2723511,5.38457742 21.097972,6.18521541 21.1812271,7.53530214 C21.2078648,7.96739483 21.1930715,8.40263536 21.1851588,8.8362036 C21.163141,10.0455221 21.1662372,10.0745414 21.6331831,11.1340907 Z M9.53013859,9.80731776 C9.29664108,9.80436665 9.16969431,9.66330327 9.12167767,9.4707429 C9.0071651,9.01149994 8.89992629,8.54940424 8.81858797,8.0834229 C8.78811681,7.90896271 8.82600917,7.71369715 9.06432309,7.67385708 C8.8502878,7.02338175 8.7808922,6.36813546 8.83593687,5.70260944 C8.93781865,4.46987878 9.60636562,3.65369825 10.7460851,3.23813182 C11.8007311,2.85355212 12.842304,2.92836293 13.8157591,3.50943783 C14.7202609,4.04929545 15.1652873,4.88362535 15.1710375,5.92054942 C15.174232,6.49488593 15.0646833,7.06976347 15.0025615,7.67769353 C15.1780163,7.72382932 15.1999359,7.93025994 15.1616012,8.13231307 C15.076626,8.5812763 14.9736139,9.02719004 14.8638686,9.47093964 C14.8158519,9.66507394 14.697211,9.80938355 14.4737395,9.80672754 C14.4334389,10.102036 14.4022306,10.3866712 14.3539682,10.6684045 C14.296417,11.0043399 14.1654402,11.3020092 13.9273229,11.5615599 C13.8238192,11.674391 13.7582571,11.8590817 13.7504427,12.0148515 C13.7361901,12.2989457 13.7775719,12.5857942 13.796346,12.8715115 C13.8148253,13.1527037 13.9666896,13.3272623 14.2350815,13.3927771 C14.853646,13.5437759 15.4718172,13.6971848 16.0936745,13.833428 C17.6684926,14.1784136 18.771401,15.4567882 18.8224648,17.0101577 C18.8240375,17.0574739 18.8226614,17.1048885 18.8226614,17.16396 L5.16357291,17.16396 C5.18534505,16.1924032 5.5016553,15.3648117 6.21109259,14.7022368 C6.80493609,14.1476236 7.54612236,13.9344546 8.31728832,13.7823245 C8.74992958,13.696988 9.17917969,13.5925677 9.60710283,13.485393 C10.0179228,13.3824974 10.2215881,13.1090272 10.2244877,12.6847058 C10.2252741,12.5701041 10.2224236,12.4541252 10.2383472,12.3411958 C10.2836116,12.0195733 10.2292059,11.7513168 9.99605238,11.4890117 C9.62248585,11.0687234 9.6248449,10.5083556 9.54689772,9.98433559 C9.53982055,9.9358389 9.53755979,9.88675199 9.53013859,9.80731776 Z M1.00199948,14.8157072 C0.956636777,13.8770554 1.68823938,13.0114436 2.67707751,12.7988648 C2.94055471,12.7422034 3.20585035,12.6886898 3.4635282,12.611223 C3.93632257,12.4690775 4.02026569,12.3427206 4.00851955,11.8506218 C4.00620964,11.7528907 3.99456179,11.6553071 3.98655083,11.5489685 C3.72395828,11.5239824 3.46244696,11.5210805 3.21115823,11.4689441 C2.97397469,11.419808 2.74603079,11.3230113 2.51685821,11.2394455 C2.38116328,11.1899652 2.3478416,11.0858399 2.42544475,10.9662213 C2.86437682,10.2895794 2.79768431,9.5288799 2.80505636,8.77678779 C2.81051168,8.22183028 2.77974565,7.65516667 2.87902263,7.11471882 C3.13498034,5.72139822 4.20795817,5.27223825 5.3793775,5.3983493 C6.72669402,5.54349506 7.42694083,6.37733311 7.46444001,7.8234787 C7.47716909,8.31454453 7.4646366,8.80620058 7.4670448,9.2976599 C7.46989533,9.87706249 7.54071619,10.4414144 7.86169541,10.9444322 C7.95384608,11.0888402 7.89654065,11.1900635 7.75784774,11.2280837 C7.35946196,11.3371767 6.96019154,11.4508931 6.55404053,11.5209821 C6.28491142,11.5673638 6.25193377,11.5657899 6.26775911,11.8494414 C6.29768965,12.3855609 6.30688014,12.3900368 6.82036825,12.5206729 C7.06477641,12.5828431 7.30884053,12.6549487 7.54120766,12.7512535 C7.62038352,12.7840601 7.66338716,12.9044164 7.72290421,12.9848344 C7.64215565,13.0239859 7.56406103,13.0900417 7.4802162,13.0983048 C6.42778182,13.2021349 5.64865405,13.7435665 5.06994783,14.6013086 C4.96899985,14.7509794 4.86795356,14.8223964 4.67686993,14.8207241 C3.53085962,14.810592 2.38470186,14.8157072 1.23854411,14.8157072 L1.00199948,14.8157072 Z"></path></g></svg>