<svg width="24" height="24" viewBox="0 0 24 24" fill="none" xmlns="http://www.w3.org/2000/svg">
<path d="M19 3H5C3.89 3 3 3.89 3 5V19C3 19.5304 3.21071 20.0391 3.58579 20.4142C3.96086 20.7893 4.46957 21 5 21H19C19.5304 21 20.0391 20.7893 20.4142 20.4142C20.7893 20.0391 21 19.5304 21 19V5C21 3.89 20.1 3 19 3Z" fill="white"/>
<path fill-rule="evenodd" clip-rule="evenodd" d="M5 3C3.89543 3 3 3.89543 3 5V19C3 20.1046 3.89543 21 5 21H19C20.1046 21 21 20.1046 21 19V5C21 3.89543 20.1046 3 19 3H5ZM10.9973 12C9.15732 12 7.71732 13.64 8.04732 15.54C8.24732 16.75 9.23732 17.74 10.4473 17.95C12.3373 18.29 13.9773 16.85 13.9973 15.03V8H15.9973C16.5473 8 16.9973 7.55 16.9973 7C16.9973 6.45 16.5473 6 15.9973 6H13.9973C12.8973 6 11.9973 6.9 11.9973 8V12.18C11.6873 12.07 11.3473 12 10.9973 12Z" fill="#8997A1"/>
</svg>
