<svg height="100%" viewBox="0 0 24 24" width="100%" xmlns="http://www.w3.org/2000/svg" preserveAspectRatio="xMidYMid meet"><path id="instagram" d="M11.99995,3.80176599 C14.6700366,3.80176599 14.9862101,3.81196594 16.0407548,3.8600657 C17.0156749,3.90459048 17.5451973,4.06751466 17.8975955,4.20441398 C18.3644182,4.38583807 18.6974915,4.60256199 19.0474148,4.95248524 C19.397388,5.30240849 19.6141369,5.63540682 19.795486,6.10222949 C19.9324103,6.45465273 20.0953095,6.98415008 20.1397593,7.9590952 C20.1878591,9.01361493 20.198059,9.32981335 20.198059,11.999975 C20.198059,14.6701366 20.1878591,14.9863851 20.1397593,16.0408548 C20.0953095,17.0158499 19.9323853,17.5453723 19.795486,17.8976955 C19.6141369,18.3644182 19.397388,18.6975165 19.0474148,19.0475148 C18.6974915,19.397413 18.3644182,19.6141619 17.8975955,19.795586 C17.5451723,19.9324853 17.0156749,20.0954095 16.0407548,20.1398593 C14.9863851,20.1880341 14.6702616,20.198134 11.99995,20.198134 C9.32958835,20.198134 9.01346493,20.1880341 7.9590702,20.1398593 C6.98415008,20.0954095 6.45462773,19.9324603 6.10220449,19.795586 C5.63548182,19.6141619 5.30230849,19.397413 4.95238524,19.0475148 C4.60248699,18.6975165 4.38581307,18.3644182 4.20438898,17.8976955 C4.06748966,17.5453473 3.90449048,17.0158499 3.8600407,16.0408548 C3.81194094,14.9863851 3.80174099,14.6701366 3.80174099,11.999975 C3.80174099,9.32981335 3.81194094,9.01361493 3.8600407,7.9590952 C3.90449048,6.98415008 4.06748966,6.45465273 4.20438898,6.10222949 C4.38581307,5.63543182 4.60248699,5.30240849 4.95238524,4.95248524 C5.30230849,4.60256199 5.63548182,4.38583807 6.10220449,4.20441398 C6.45462773,4.06751466 6.98415008,3.90456548 7.9590702,3.8600657 C9.01361493,3.81196594 9.32978835,3.80176599 11.99995,3.80176599 M11.99995,2 C9.28406358,2 8.94351528,2.01147494 7.87697062,2.0601997 C6.81255094,2.10874946 6.08562957,2.27784861 5.44958275,2.52502237 C4.79198604,2.7805711 4.23431383,3.12246939 3.67841661,3.67839161 C3.12249439,4.23431383 2.7804961,4.79206104 2.52502237,5.44955775 C2.27769861,6.08577957 2.10867446,6.81260094 2.0601247,7.87704561 C2.01142494,8.94369028 2,9.28416358 2,11.99995 C2,14.7158364 2.01142494,15.0563097 2.0601247,16.1228544 C2.10867446,17.1873491 2.27769861,17.9141954 2.52502237,18.5503422 C2.7804961,19.207914 3.12249439,19.7655862 3.67841661,20.3215834 C4.23431383,20.8775056 4.79198604,21.2194289 5.44958275,21.4749776 C6.08562957,21.7221514 6.81255094,21.8911505 7.87697062,21.9398003 C8.94354028,21.9884251 9.28408858,22 11.99995,22 C14.7157614,22 15.0563097,21.9884251 16.1228544,21.9398003 C17.1872991,21.8911755 17.9141954,21.7221514 18.5502672,21.4749776 C19.207864,21.2194289 19.7655112,20.8775306 20.3215334,20.3215834 C20.8774306,19.7656112 21.2193539,19.207914 21.4749026,18.5503422 C21.7221764,17.9142204 21.8911755,17.1873491 21.9397503,16.1228544 C21.9884251,15.0563097 21.99985,14.7158364 21.99985,11.99995 C21.99985,9.28413858 21.9884251,8.94366528 21.9397503,7.87704561 C21.8912005,6.81262594 21.7221764,6.08577957 21.4749026,5.44958275 C21.2193539,4.79208604 20.8774556,4.23433883 20.3215334,3.67841661 C19.7655362,3.12249439 19.207864,2.7805711 18.5502672,2.52504737 C17.9142204,2.27787361 17.1872991,2.10877446 16.1228544,2.0602247 C15.0563097,2.01149994 14.7157614,2 11.99995,2 M11.99995,6.86490068 C9.16391418,6.86490068 6.86482568,9.16391418 6.86482568,11.99995 C6.86482568,14.8359858 9.16391418,17.1349993 11.99995,17.1349993 C14.8359108,17.1349993 17.1349993,14.8359858 17.1349993,11.99995 C17.1349993,9.16391418 14.8359108,6.86490068 11.99995,6.86490068 M11.99995,15.3332333 C10.1589842,15.3332333 8.66659167,13.8409158 8.66659167,11.99995 C8.66659167,10.1589842 10.1589842,8.66664167 11.99995,8.66664167 C13.8409158,8.66664167 15.3332333,10.1589842 15.3332333,11.99995 C15.3332333,13.8409158 13.8409158,15.3332333 11.99995,15.3332333 M18.5379173,6.66202669 C18.5379173,7.32469838 18.00072,7.86197069 17.3378733,7.86197069 C16.6751766,7.86197069 16.1379293,7.32469838 16.1379293,6.66202669 C16.1379293,5.99918 16.6751766,5.46198269 17.3378733,5.46198269 C18.00072,5.46198269 18.5379173,5.99918 18.5379173,6.66202669"/></svg>