<svg preserveAspectRatio="xMidYMid meet" height="100%" width="100%" xmlns="http://www.w3.org/2000/svg" viewBox="0 0 32 28"><g id="folder-attach" fill="none"><path fill="#0F66B7" d="M32,5.83520508 C32,4.08562174 30.568,2.66853841 28.8,2.66853841 L18.6666667,2.66853841 L15.4666667,0 L8.53333333,0 C6.76533333,0 5.34933333,1.41708333 5.34933333,3.16666667 L5.33333333,23.5 C5.33333333,25.2495833 6.76533333,26.6666667 8.53333333,26.6666667 C22.1207345,27.5555556 28.9429567,28 29,28 C31.0383301,28 32,27.0041504 32,25 C32,24.9461186 32,18.5578536 32,5.83520508 Z"/><path fill="#00A4E9" d="M26.6666667,25 L26.6666667,9.83999888 C26.6666667,8.09041555 25.2346667,6.66666667 23.4666667,6.66666667 L3.2,6.66666667 C1.432,6.66666667 0.016,8.09041555 0.016,9.83999888 L0,25 C0,27.0322266 1.05670166,28 2.99920654,28 L29.3333333,28 C27.0547485,28 26.6666667,27.008606 26.6666667,25 Z"/></g></svg>