<svg viewBox="0 0 24 24" xmlns="http://www.w3.org/2000/svg">
<path d="M15.9707 14.4716H15.1807L14.9007 14.2016C16.1007 12.8016 16.7207 10.8916 16.3807 8.86157C15.9107 6.08157 13.5907 3.86157 10.7907 3.52157C6.56072 3.00157 3.01072 6.56157 3.52072 10.7916C3.86072 13.5916 6.08072 15.9116 8.86072 16.3816C10.8907 16.7216 12.8007 16.1016 14.2007 14.9016L14.4707 15.1816V15.9716L18.7307 20.2216C19.1407 20.6316 19.8007 20.6316 20.2107 20.2216L20.2207 20.2116C20.6307 19.8016 20.6307 19.1416 20.2207 18.7316L15.9707 14.4716ZM9.97072 14.4716C7.48072 14.4716 5.47072 12.4616 5.47072 9.97157C5.47072 7.48157 7.48072 5.47157 9.97072 5.47157C12.4607 5.47157 14.4707 7.48157 14.4707 9.97157C14.4707 12.4616 12.4607 14.4716 9.97072 14.4716ZM9.47072 7.97157C9.47072 7.69157 9.69072 7.47157 9.97072 7.47157C10.2507 7.47157 10.4707 7.69157 10.4707 7.97157V9.47157H11.9707C12.2507 9.47157 12.4707 9.69157 12.4707 9.97157C12.4707 10.2516 12.2507 10.4716 11.9707 10.4716H10.4707V11.9716C10.4707 12.2516 10.2507 12.4716 9.97072 12.4716C9.69072 12.4716 9.47072 12.2516 9.47072 11.9716V10.4716H7.97072C7.69072 10.4716 7.47072 10.2516 7.47072 9.97157C7.47072 9.69157 7.69072 9.47157 7.97072 9.47157H9.47072V7.97157Z"/>
</svg>
