<svg preserveAspectRatio="xMidYMid meet" height="100%" width="100%" xmlns="http://www.w3.org/2000/svg" viewBox="0 0 24 32" xmlns:xlink="http://www.w3.org/1999/xlink"><defs><path id="b" d="M24,9 L18,9 L18,9 C16.3431458,9 15,7.65685425 15,6 L15,-1.0658141e-14 L24,9 Z"/><filter id="a" width="133.3%" height="133.3%" x="-16.7%" y="-16.7%" filterUnits="objectBoundingBox"><feOffset in="SourceAlpha" result="shadowOffsetOuter1"/><feGaussianBlur stdDeviation=".5" in="shadowOffsetOuter1" result="shadowBlurOuter1"/><feComposite in="shadowBlurOuter1" in2="SourceAlpha" operator="out" result="shadowBlurOuter1"/><feColorMatrix values="0 0 0 0 0 0 0 0 0 0 0 0 0 0 0 0 0 0 0.25 0" in="shadowBlurOuter1"/></filter><linearGradient id="c" x1="0%" y1="0%" y2="100%"><stop stop-color="#000000" stop-opacity=".2" offset="0%"/><stop stop-color="#000000" stop-opacity="0" offset="100%"/></linearGradient></defs><g fill="none" fill-rule="evenodd"><path fill="#63439E" d="M3,1.06586616e-15 L15,0 L24,9 L24,29 L24,29 C24,30.6568542 22.6568542,32 21,32 L3,32 L3,32 C1.34314575,32 2.02906125e-16,30.6568542 0,29 L0,3 L4.4408921e-16,3 C2.41183085e-16,1.34314575 1.34314575,2.52480524e-15 3,2.22044605e-15 Z"/><use fill="black" filter="url(#a)" xlink:href="#b"/><use fill="#FFFFFF" fill-opacity=".4" style="mix-blend-mode:lighten" xlink:href="#b"/><path fill="url(#c)" d="M24,9 L18,9 C17.1523823,9 16.3868673,8.64847631 15.8412861,8.08325999 C15.4940351,7.72351158 18.2136064,10.3624249 24,16 L24,9 Z" style="mix-blend-mode:hard-light"/><path fill="#F1F1F1" fill-rule="nonzero" d="M10,24.0909091 L18,24.0909091 L18,22.6363636 L10,22.6363636 L10,24.0909091 Z M10,15.3636364 L10,16.8181818 L18,16.8181818 L18,15.3636364 L10,15.3636364 Z M8.18181818,16.0909091 C8.18181818,16.6927273 7.69272727,17.1818182 7.09090909,17.1818182 C6.48909091,17.1818182 6,16.6927273 6,16.0909091 C6,15.4890909 6.48909091,15 7.09090909,15 C7.69272727,15 8.18181818,15.4890909 8.18181818,16.0909091 Z M8.18181818,19.7272727 C8.18181818,20.3290909 7.69272727,20.8181818 7.09090909,20.8181818 C6.48909091,20.8181818 6,20.3290909 6,19.7272727 C6,19.1254545 6.48909091,18.6363636 7.09090909,18.6363636 C7.69272727,18.6363636 8.18181818,19.1254545 8.18181818,19.7272727 Z M8.18181818,23.3636364 C8.18181818,23.9654545 7.69272727,24.4545455 7.09090909,24.4545455 C6.48909091,24.4545455 6,23.9654545 6,23.3636364 C6,22.7618182 6.48909091,22.2727273 7.09090909,22.2727273 C7.69272727,22.2727273 8.18181818,22.7618182 8.18181818,23.3636364 Z M10,20.4545455 L18,20.4545455 L18,19 L10,19 L10,20.4545455 Z"/></g></svg>