<svg height="100%" viewBox="0 0 20 20" width="100%" xmlns="http://www.w3.org/2000/svg"
     preserveAspectRatio="xMidYMid meet">
    <g id="icon-add-circle" fill-rule="evenodd">
        <path d="M10,20 C15.5228475,20 20,15.5228475 20,10 C20,4.4771525 15.5228475,0 10,0 C4.4771525,0 0,4.4771525 0,10 C0,15.5228475 4.4771525,20 10,20 Z M10,18.5 C14.6944204,18.5 18.5,14.6944204 18.5,10 C18.5,5.30557963 14.6944204,1.5 10,1.5 C5.30557963,1.5 1.5,5.30557963 1.5,10 C1.5,14.6944204 5.30557963,18.5 10,18.5 Z M9,9 L9,5.13095238 L11,5.13095238 L11,9 L14.8690476,9 L14.8690476,11 L11,11 L11,14.8690476 L9,14.8690476 L9,11 L5.13095238,11 L5.13095238,9 L9,9 Z"
              id="icon-add"></path>
    </g>
</svg>