<svg preserveAspectRatio="xMidYMid meet" height="100%" width="100%" xmlns="http://www.w3.org/2000/svg" viewBox="0 0 32 28"><g id="pdf-file" fill="none" fill-rule="evenodd"><rect width="32" height="28" fill="#EC4B2F" rx="2"/><path fill="#F1F1F1" fill-rule="nonzero" d="M16.2382254,6.00166554 C16.0439999,5.3029432 15.5738283,4.95358203 15.1751983,5.00495258 C14.6947653,5.06659724 14.1836716,5.35431375 13.9792259,5.80645745 C13.4068108,7.10116104 14.602742,10.913353 14.7867473,11.5504722 C13.621518,15.0852217 9.6350531,22.0725695 7.68274277,22.5452614 C7.64186187,22.082885 7.88718849,20.747085 10.463015,19.0824306 C10.5959191,18.9385516 10.7492225,18.7638917 10.8208053,18.6508351 C8.64360881,19.7195083 5.82241447,21.4355332 7.51921916,22.7199627 C7.61120119,22.7918815 7.75432556,22.8535676 7.91789038,22.9152122 C9.21602385,23.3981368 11.03543,21.8157167 12.8651389,18.2295552 C14.8787706,17.5616551 16.5040337,17.0581409 18.8038729,16.7087797 C21.318378,18.4248047 23.0049213,18.7741244 24.1497514,18.3322963 C24.4666196,18.2089655 24.9674931,17.8082338 25.1105762,17.2841713 C24.1804121,18.4350374 22.0032156,17.6335739 20.2655712,16.5340784 C21.8703114,16.3593771 23.5262352,16.2566774 24.2417334,16.4827079 C25.1514571,16.7704244 25.1207964,17.2225267 25.1105762,17.2842127 C25.1821178,17.0376341 25.2843613,16.6368609 25.0901358,16.3183221 C24.3234952,15.064715 20.8072843,15.7943011 19.5295913,15.9278645 C17.5159184,14.7050797 16.1257617,12.5266783 15.5636081,10.9545323 C16.0848808,8.93020121 16.6470756,7.46083775 16.2382254,6.00166554 M15.3693826,10.245453 C15.0320739,9.04321642 14.5618611,6.37161636 15.3182815,5.50846683 C16.8004202,6.36134225 15.8804763,8.38559052 15.3693826,10.245453 M18.1394346,16.2052655 C16.1973445,16.5649007 14.8787706,17.0683736 12.9877816,17.8184665 C13.5499764,16.7190124 14.6130035,13.9138075 15.1240972,12.0642191 C15.8395954,13.5028016 16.708397,14.9105204 18.1394346,16.2052655"/></g></svg>