<svg width="12" height="12" viewBox="0 0 12 12" xmlns="http://www.w3.org/2000/svg">
<path fill-rule="evenodd" clip-rule="evenodd" d="M5.99999 0.166668C6.64166 0.166668 7.16666 0.691668 7.16666 1.33333V10.6667C7.16666 11.3083 6.64166 11.8333 5.99999 11.8333C5.35832 11.8333 4.83332 11.3083 4.83332 10.6667V1.33333C4.83332 0.691668 5.35832 0.166668 5.99999 0.166668ZM1.33332 3.66667H1.49999C2.14166 3.66667 2.66666 4.19167 2.66666 4.83333V10.6667C2.66666 11.3083 2.14166 11.8333 1.49999 11.8333H1.33332C0.691657 11.8333 0.166656 11.3083 0.166656 10.6667V4.83333C0.166656 4.19167 0.691657 3.66667 1.33332 3.66667ZM11.8333 8C11.8333 7.35834 11.3083 6.83334 10.6667 6.83334C10.025 6.83334 9.49999 7.35834 9.49999 8V10.6667C9.49999 11.3083 10.025 11.8333 10.6667 11.8333C11.3083 11.8333 11.8333 11.3083 11.8333 10.6667V8Z" fill="#434F59"/>
</svg>
