<svg preserveAspectRatio="xMidYMid meet" height="100%" width="100%" xmlns="http://www.w3.org/2000/svg" viewBox="0 0 24 32"><defs><linearGradient id="a" x1="0%" y1="0%" y2="100%"><stop stop-color="#000000" stop-opacity=".2" offset="0%"/><stop stop-color="#000000" stop-opacity="0" offset="100%"/></linearGradient></defs><g fill="none" fill-rule="evenodd"><path fill="#0F9D58" d="M3,1.06586616e-15 L15,0 L24,9 L24,29 L24,29 C24,30.6568542 22.6568542,32 21,32 L3,32 L3,32 C1.34314575,32 2.02906125e-16,30.6568542 0,29 L0,3 L4.4408921e-16,3 C2.41183085e-16,1.34314575 1.34314575,2.52480524e-15 3,2.22044605e-15 Z"/><path fill="#FFFFFF" fill-opacity=".4" d="M24,9 L18,9 L18,9 C16.3431458,9 15,7.65685425 15,6 L15,-1.0658141e-14 L24,9 Z" style="mix-blend-mode:lighten"/><path fill="url(#a)" d="M24,9 L18,9 C17.1523823,9 16.3868673,8.64847631 15.8412861,8.08325999 C15.4940351,7.72351158 18.2136064,10.3624249 24,16 L24,9 Z" style="mix-blend-mode:hard-light"/><path fill="#F1F1F1" fill-rule="nonzero" d="M6,15 L6,25.875 L18,25.875 L18,15 L6,15 Z M11.25,24.375 L7.5,24.375 L7.5,22.5 L11.25,22.5 L11.25,24.375 Z M11.25,21.375 L7.5,21.375 L7.5,19.5 L11.25,19.5 L11.25,21.375 Z M11.25,18.375 L7.5,18.375 L7.5,16.5 L11.25,16.5 L11.25,18.375 Z M16.5,24.375 L12.75,24.375 L12.75,22.5 L16.5,22.5 L16.5,24.375 Z M16.5,21.375 L12.75,21.375 L12.75,19.5 L16.5,19.5 L16.5,21.375 Z M16.5,18.375 L12.75,18.375 L12.75,16.5 L16.5,16.5 L16.5,18.375 Z"/></g></svg>