<svg xmlns="http://www.w3.org/2000/svg" viewBox="0 0 24 24">
  <g id="launcher" fill-rule="evenodd">
    <path d="M16.7295613,13.7902674 L16.89814,15.4929993 C17.0075028,16.5962002 16.5295075,17.5982434 15.6001908,18.2136632 L11.3889242,21 L11.0304277,16.3742889 C10.0450959,16.3425117 9.19099935,15.9987875 8.54762622,15.3600644 C7.9085209,14.7255783 7.56176092,13.8845399 7.52601797,12.9153332 L3,12.6266897 L5.67912096,8.42785327 C6.29101896,7.46765013 7.32863152,6.96715815 8.46760469,7.08261556 L10.1197826,7.24944622 C10.2984974,7.05189753 10.4868147,6.85487847 10.6847347,6.65838902 C14.0840494,3.28470233 19.439624,2.66928256 20.8602729,3.13852689 C21.3334669,4.54943762 20.7130333,9.86524505 17.3137185,13.2389317 C17.119533,13.4317138 16.9248139,13.6154924 16.7295613,13.7902674 Z M14.2307556,6.89989626 C13.4465445,7.67843935 13.4465445,8.94105615 14.2307556,9.71959924 C15.0155001,10.4981423 16.287309,10.4981423 17.0720535,9.71959924 C17.8562645,8.94052653 17.8562645,7.67790972 17.0720535,6.89989626 C16.287309,6.12082356 15.0155001,6.12082356 14.2307556,6.89989626 Z"/>
    <path fill-opacity=".75" d="M4.59311676,15.2322857 L6.27896602,13.5639429 C6.41144415,14.5071429 6.82342519,15.3459429 7.4956868,16.0119429 C8.16742889,16.6769143 9.01528898,17.0847429 9.96809253,17.2158857 L8.58252706,18.5874857 L7.14812651,20.0069143 L7.14812651,18.1817143 L4.38115174,19.0935429 L5.30330349,16.3554857 L3.45899999,16.3554857 L4.59311676,15.2322857 L4.59311676,15.2322857 Z"/>
  </g>
</svg>
