<svg height="100%" viewBox="0 0 24 24" width="100%" xmlns="http://www.w3.org/2000/svg" preserveAspectRatio="xMidYMid meet">
<path fill-rule="evenodd" clip-rule="evenodd" d="M8.995 21.475L8.995 17.665C7.205 16.625 5.995 14.695 5.995 12.465C5.995 8.91503 9.105 6.07503 12.745 6.51503C15.365 6.83502 17.525 8.92502 17.925 11.535C18.315 14.145 17.035 16.485 14.995 17.665L14.995 21.475C14.995 22.025 14.545 22.475 13.995 22.475H9.995C9.445 22.475 8.995 22.025 8.995 21.475ZM20.985 13.475H22.005C22.555 13.475 22.995 13.035 22.995 12.485V12.475C22.995 11.925 22.555 11.485 22.005 11.485H20.995C20.445 11.485 20.005 11.925 20.005 12.475V12.485C19.995 13.035 20.435 13.475 20.985 13.475ZM18.335 4.73502C18.725 4.34503 19.355 4.34503 19.745 4.73502C20.135 5.12502 20.135 5.74503 19.755 6.14502L19.365 6.53503C19.1782 6.72228 18.9245 6.82751 18.66 6.82751C18.3955 6.82751 18.1418 6.72228 17.955 6.53503L17.945 6.52502C17.565 6.14502 17.555 5.51503 17.945 5.12502L18.335 4.73502ZM11.995 1.52502L12.005 1.52502C12.555 1.52502 12.995 1.96502 12.995 2.51502V3.47503C12.995 4.02502 12.555 4.46502 12.005 4.46502H11.995C11.445 4.46502 11.005 4.02502 11.005 3.47503V2.51502C11.005 1.96503 11.445 1.52502 11.995 1.52502ZM3.995 12.485V12.475C3.995 11.925 3.555 11.485 3.005 11.485H1.995C1.445 11.485 1.005 11.925 1.005 12.475L1.005 12.485C1.005 13.035 1.445 13.475 1.995 13.475H3.005C3.555 13.475 3.995 13.035 3.995 12.485ZM5.665 4.72503L6.055 5.11503C6.445 5.50503 6.445 6.12503 6.045 6.52503C5.665 6.90503 5.035 6.91503 4.645 6.52503L4.25499 6.13503C3.865 5.74503 3.865 5.11503 4.25499 4.72503C4.645 4.33503 5.275 4.33503 5.665 4.72503Z"/>
</svg>
 