<svg height="100%" viewBox="0 0 20 20" width="100%" xmlns="http://www.w3.org/2000/svg" preserveAspectRatio="xMidYMid meet"><g id="icon-photo" fill-rule="evenodd"><path d="M1,4.00585866 L1,15.9941413 C1,17.654316 2.34228396,19 4.00010618,19 L15.9998938,19 C17.6614196,19 19,17.6550524 19,15.9941413 L19,4.00585866 C19,2.34568399 17.657716,1 15.9998938,1 L4.00010618,1 C2.33858038,1 1,2.34494757 1,4.00585866 Z M17,11 L17,15.9941413 C17,16.5526019 16.55472,17 15.9998938,17 L4.00010618,17 C3.44798768,17 3,16.5508776 3,15.9941413 L3,13 L6,10 L8,12 L13,7 L17,11 Z M7.5,8 C6.80555207,8 6.2152802,7.75694688 5.72916666,7.27083334 C5.24305312,6.7847198 5,6.19444791 5,5.5 C5,4.80555209 5.24305312,4.2152802 5.72916666,3.72916666 C6.2152802,3.24305312 6.80555207,3 7.5,3 C8.19444791,3 8.78471979,3.24305312 9.27083333,3.72916666 C9.75694687,4.2152802 10,4.80555209 10,5.5 C10,6.19444791 9.75694687,6.7847198 9.27083333,7.27083334 C8.78471979,7.75694688 8.19444791,8 7.5,8 Z" id="Combined-Shape"></path></g></svg>