<svg height="100%" viewBox="0 0 24 24" width="100%" xmlns="http://www.w3.org/2000/svg" preserveAspectRatio="xMidYMid meet"><path id="page-subpage" fill-rule="evenodd" d="M6,14 L8,14 L8,16 L6,16 L6,14 Z M3,11 L5,11 L5,13 L3,13 L3,11 Z M3,8 L5,8 L5,10 L3,10 L3,8 Z M3,5 L5,5 L5,7 L3,7 L3,5 Z M3,2 L5,2 L5,4 L3,4 L3,2 Z M5.0085302,15.9999823 C3.90195036,15.9999823 3,15.1019288 3,13.9941237 L5,13.9999823 L5.0085302,15.9999823 Z M11,8 L16,8 L21,13 L21,20 C21,21.1045695 20.1045695,22 19,22 L11,22 C9.8954305,22 9,21.1045695 9,20 L9,10 L9,10 C9,8.8954305 9.8954305,8 11,8 Z M11,10 L11,20 L19,20 L19,14 L15,14 L15,10 L11,10 Z"/></svg>