<svg preserveAspectRatio="xMidYMid meet" height="100%" width="100%" xmlns="http://www.w3.org/2000/svg" viewBox="0 0 32 28"><g id="link-attach" fill="none" fill-rule="evenodd"><rect width="32" height="28" fill="#0F66B7" rx="2"/><path fill="#FFFFFF" d="M23.6470588,18.7058824 C23.6470588,19.0122549 23.5245098,19.3063725 23.3039216,19.5269608 L21.502451,21.3161765 C21.2818627,21.5245098 20.9754902,21.6348039 20.6691176,21.6348039 C20.3627451,21.6348039 20.0563725,21.5245098 19.8357843,21.3039216 L17.3112745,18.7671569 C17.0906863,18.5465686 16.9681373,18.2401961 16.9681373,17.9338235 C16.9681373,17.5661765 17.1151961,17.2843137 17.372549,17.0392157 C17.7769608,17.4436275 18.120098,17.9215686 18.745098,17.9215686 C19.3946078,17.9215686 19.9215686,17.3946078 19.9215686,16.745098 C19.9215686,16.120098 19.4436275,15.7769608 19.0392157,15.372549 C19.2843137,15.1151961 19.5661765,14.9803922 19.9215686,14.9803922 C20.2279412,14.9803922 20.5343137,15.1029412 20.754902,15.3235294 L23.3039216,17.872549 C23.5245098,18.0931373 23.6470588,18.3872549 23.6470588,18.7058824 Z M15.0318627,10.0661765 C15.0318627,10.4338235 14.8848039,10.7156863 14.627451,10.9607843 C14.2230392,10.5563725 13.879902,10.0784314 13.254902,10.0784314 C12.6053922,10.0784314 12.0784314,10.6053922 12.0784314,11.254902 C12.0784314,11.879902 12.5563725,12.2230392 12.9607843,12.627451 C12.7156863,12.8848039 12.4338235,13.0073529 12.0784314,13.0073529 C11.7720588,13.0073529 11.4656863,12.8970588 11.245098,12.6764706 L8.69607843,10.127451 C8.4754902,9.90686275 8.35294118,9.6127451 8.35294118,9.29411765 C8.35294118,8.9877451 8.4754902,8.69362745 8.69607843,8.47303922 L10.497549,6.68382353 C10.7181373,6.4754902 11.0245098,6.35294118 11.3308824,6.35294118 C11.6372549,6.35294118 11.9436275,6.4754902 12.1642157,6.69607843 L14.6887255,9.23284314 C14.9093137,9.45343137 15.0318627,9.75980392 15.0318627,10.0661765 Z M26,18.7058824 C26,17.7622549 25.6446078,16.879902 24.9705882,16.2058824 L22.4215686,13.6568627 C21.7598039,12.995098 20.8529412,12.627451 19.9215686,12.627451 C18.9534314,12.627451 18.0465686,13.0196078 17.372549,13.7058824 L16.2941176,12.627451 C16.9803922,11.9534314 17.372549,11.0343137 17.372549,10.0661765 C17.372549,9.13480392 17.0171569,8.24019608 16.3553922,7.57843137 L13.8308824,5.04166667 C13.1691176,4.36764706 12.2745098,4 11.3308824,4 C10.3995098,4 9.50490196,4.35539216 8.84313725,5.01715686 L7.04166667,6.80637255 C6.37990196,7.45588235 6,8.3627451 6,9.29411765 C6,10.2377451 6.35539216,11.120098 7.02941176,11.7941176 L9.57843137,14.3431373 C10.2401961,15.004902 11.1470588,15.372549 12.0784314,15.372549 C13.0465686,15.372549 13.9534314,14.9803922 14.627451,14.2941176 L15.7058824,15.372549 C15.0196078,16.0465686 14.627451,16.9656863 14.627451,17.9338235 C14.627451,18.8651961 14.9828431,19.7598039 15.6446078,20.4215686 L18.1691176,22.9583333 C18.8308824,23.6323529 19.7254902,24 20.6691176,24 C21.6004902,24 22.495098,23.6446078 23.1568627,22.9828431 L24.9583333,21.1936275 C25.620098,20.5441176 26,19.6372549 26,18.7058824 Z"/></g></svg>