<svg preserveAspectRatio="xMidYMid meet" height="100%" width="100%" xmlns="http://www.w3.org/2000/svg" viewBox="0 0 24 32" xmlns:xlink="http://www.w3.org/1999/xlink"><defs><path id="b" d="M24,9 L18,9 L18,9 C16.3431458,9 15,7.65685425 15,6 L15,-1.0658141e-14 L24,9 Z"/><filter id="a" width="133.3%" height="133.3%" x="-16.7%" y="-16.7%" filterUnits="objectBoundingBox"><feOffset in="SourceAlpha" result="shadowOffsetOuter1"/><feGaussianBlur stdDeviation=".5" in="shadowOffsetOuter1" result="shadowBlurOuter1"/><feComposite in="shadowBlurOuter1" in2="SourceAlpha" operator="out" result="shadowBlurOuter1"/><feColorMatrix values="0 0 0 0 0 0 0 0 0 0 0 0 0 0 0 0 0 0 0.25 0" in="shadowBlurOuter1"/></filter><linearGradient id="c" x1="0%" y1="0%" y2="100%"><stop stop-color="#000000" stop-opacity=".2" offset="0%"/><stop stop-color="#000000" stop-opacity="0" offset="100%"/></linearGradient></defs><g fill="none" fill-rule="evenodd"><path fill="#F5BA15" d="M3,1.06586616e-15 L15,0 L24,9 L24,29 L24,29 C24,30.6568542 22.6568542,32 21,32 L3,32 L3,32 C1.34314575,32 2.02906125e-16,30.6568542 0,29 L0,3 L4.4408921e-16,3 C2.41183085e-16,1.34314575 1.34314575,2.52480524e-15 3,2.22044605e-15 Z"/><use fill="black" filter="url(#a)" xlink:href="#b"/><use fill="#FFFFFF" fill-opacity=".4" style="mix-blend-mode:lighten" xlink:href="#b"/><path fill="url(#c)" d="M24,9 L18,9 C17.1523823,9 16.3868673,8.64847631 15.8412861,8.08325999 C15.4940351,7.72351158 18.2136064,10.3624249 24,16 L24,9 Z" style="mix-blend-mode:hard-light"/><path fill="#F2F2F2" d="M7,14 L17,14 C17.5522847,14 18,14.4477153 18,15 L18,25 C18,25.5522847 17.5522847,26 17,26 L7,26 C6.44771525,26 6,25.5522847 6,25 L6,15 L6,15 C6,14.4477153 6.44771525,14 7,14 L7,14 Z M7.5,17.5 L7.5,22.5 L16.5,22.5 L16.5,17.5 L7.5,17.5 Z"/></g></svg>