<svg preserveAspectRatio="xMidYMid meet" height="100%" width="100%" xmlns="http://www.w3.org/2000/svg" viewBox="0 0 32 28"><g id="people-attach" fill="none" fill-rule="evenodd"><rect width="32" height="28" fill="#EC4B2F" rx="2"/><g fill="#FFFFFF" transform="translate(2 5.5)"><path fill-opacity=".75" fill-rule="nonzero" d="M23.0852555,13.9674414 C23.1366278,13.989077 23.193483,13.9948709 23.2637957,13.9947833 C24.7545679,13.9926613 26.2453401,13.9938472 27.7361749,13.9927237 C27.8249344,13.9926613 27.9136939,13.9815519 27.9997012,13.9756851 C28.0186541,12.7759884 27.1339987,11.7300142 25.8742265,11.4348646 C25.5701047,11.3636517 25.2607912,11.3120364 24.9607352,11.2272176 C24.163213,11.0017206 23.9712448,10.6332361 24.2175071,9.82773793 C24.9220788,9.76126842 25.6460413,9.75565128 26.2604149,9.32188311 C25.6661201,7.97738902 25.6621794,7.94056554 25.6902021,6.40602482 C25.7002728,5.85585699 25.7191006,5.30356713 25.6851981,4.75527168 C25.5792371,3.04210586 24.5284469,2.02615215 22.8676617,2.00062537 C21.0144079,1.97210277 19.9486055,2.91965217 19.8078663,4.76207467 C19.7525714,5.48649872 19.7684593,6.21629026 19.7493188,6.94352288 C19.731742,7.61052725 19.6901458,8.27428617 19.3889013,8.88861424 C19.1617795,9.35165396 19.1653449,9.42155617 19.6575568,9.57346865 C20.1691595,9.73137275 20.7016541,9.82212079 21.2361503,9.94482413 C21.3335418,10.9394327 21.2709285,10.9482953 20.4772219,11.1592502 C20.3164039,11.2020029 20.1497687,11.2227239 19.9892635,11.2660383 C19.8595332,11.3011142 19.7199199,11.3333816 19.6129581,11.4075278 C19.5933881,11.4210886 19.5733113,11.4385682 19.5542111,11.4584583 C21.0613284,11.8612643 22.3017411,12.7681636 23.0852555,13.9674414 L23.0852555,13.9674414 Z M8.45378928,11.5052008 C8.41704365,11.4466633 8.37725808,11.3954668 8.32517338,11.3739498 C8.0294334,11.2517458 7.71880633,11.1602488 7.40774141,11.0813591 C6.75421109,10.9155911 6.7425141,10.9099115 6.70442069,10.2296132 C6.68427934,9.86967926 6.7262509,9.87167646 7.06877885,9.8128213 C7.58569832,9.72388322 8.09386068,9.57958509 8.60089713,9.44115375 C8.77741537,9.39290875 8.85034955,9.26446344 8.73306688,9.08121979 C8.32454788,8.44292525 8.23441223,7.72680209 8.23078429,6.99158065 C8.2277193,6.36795308 8.24366975,5.74407587 8.2274691,5.12094761 C8.17974287,3.28588981 7.28851967,2.22780754 5.57375318,2.04362771 C4.08285586,1.88360158 2.7172477,2.45355423 2.39148335,4.2215808 C2.26513082,4.9073714 2.3042876,5.62642796 2.29734446,6.3306303 C2.28796185,7.28498268 2.37284323,8.25025729 1.81420241,9.10886861 C1.71543476,9.26065627 1.75784417,9.39278392 1.93054682,9.45557109 C2.222221,9.56161024 2.51233142,9.68443841 2.81420138,9.74678868 C3.1340234,9.81294613 3.46685599,9.81662848 3.80106469,9.84833412 C3.81126046,9.98327035 3.82608499,10.1070971 3.82902488,10.2311111 C3.84397451,10.8555501 3.73713782,11.0158882 3.13539952,11.1962609 C2.8074459,11.2945609 2.4697969,11.3624659 2.13446229,11.4343653 C0.875941031,11.7041129 -0.0551895566,12.8025138 0.00254479329,13.9935975 L0.303601593,13.9935975 C1.76234783,13.9935975 3.22109406,13.9871066 4.67965264,13.9999636 C4.77000234,14.0007519 4.84453614,13.9887398 4.90912335,13.9635911 C5.16530685,13.5703107 5.47647695,13.2038541 5.84380316,12.8668947 C6.59320668,12.1794487 7.40413042,11.7830059 8.45378928,11.5052008 L8.45378928,11.5052008 Z"/><path d="M11.1147045,8.17034232 C10.841201,8.1668003 10.692504,7.99749189 10.6362605,7.76637529 C10.5021281,7.21517844 10.3765157,6.66055763 10.2812414,6.10127317 C10.2455495,5.89188094 10.2899341,5.65751749 10.5690792,5.60970026 C10.3183725,4.82898071 10.2370871,4.04253491 10.3015628,3.24375107 C10.4209003,1.7641916 11.2039917,0.784587802 12.5389833,0.285812795 C13.7743254,-0.175771035 14.9943546,-0.0859809073 16.1345951,0.611442211 C17.1940684,1.25939516 17.7153426,2.26078236 17.722078,3.50532902 C17.7258199,4.19466453 17.5975018,4.88464941 17.5247364,5.61430489 C17.7302526,5.66967842 17.7559277,5.91744249 17.711025,6.15995258 C17.6114907,6.69881141 17.4908291,7.23401016 17.3622808,7.76661143 C17.3060373,7.9996171 17.1670692,8.17282173 16.9053096,8.16963391 C16.8581042,8.52407173 16.8215488,8.86569926 16.7650174,9.2038438 C16.6976058,9.60704339 16.5441883,9.96431482 16.2652735,10.2758352 C16.1440362,10.4112583 16.0672411,10.6329295 16.0580879,10.819889 C16.0413933,11.1608671 16.0898652,11.5051512 16.111856,11.8480775 C16.1335014,12.1855726 16.3113851,12.3950829 16.6257615,12.4737157 C17.3503067,12.6549489 18.0743914,12.8390747 18.8027937,13.0025978 C20.6474308,13.4166596 21.9393043,14.9510023 21.999117,16.8154019 C22.0009591,16.8721922 21.9993473,16.9291006 21.9993473,17 L6,17 C6.02550243,15.833909 6.3960072,14.8406094 7.22699484,14.0453676 C7.92258359,13.3797046 8.79075987,13.1238529 9.69405236,12.9412619 C10.2008195,12.8388386 10.7036145,12.7135102 11.2048552,12.584876 C11.6860624,12.4613777 11.9246224,12.1331508 11.9280189,11.6238678 C11.9289399,11.4863195 11.925601,11.3471182 11.9442529,11.211577 C11.9972726,10.8255562 11.9335453,10.5035869 11.6604449,10.1887606 C11.2228739,9.68431839 11.2256371,9.01174842 11.134335,8.38280429 C11.1260453,8.32459715 11.1233972,8.2656816 11.1147045,8.17034232 L11.1147045,8.17034232 Z"/></g></g></svg>