<svg height="100%" viewBox="0 0 20 20" width="100%" xmlns="http://www.w3.org/2000/svg" preserveAspectRatio="xMidYMid meet"><g id="icon-sliders" fill-rule="evenodd"><path d="M5.35714754,15.5714269 L1.42857143,15.5714269 L1.42857143,17 L5.35714754,17 L5.35714754,15.5714269 Z M9.28572365,14.1428537 L6.42857739,14.1428537 C6.03795192,14.1428537 5.71429082,14.4665148 5.71429082,14.8571403 L5.71429082,17.7142866 C5.71429082,18.104912 6.03795192,18.4285731 6.42857739,18.4285731 L9.28572365,18.4285731 C9.67634912,18.4285731 10.0000102,18.104912 10.0000102,17.7142866 L10.0000102,14.8571403 C10.0000102,14.4665148 9.67634912,14.1428537 9.28572365,14.1428537 Z M11.0714401,9.85713434 L1.42857143,9.85713434 L1.42857143,11.2857075 L11.0714401,11.2857075 L11.0714401,9.85713434 Z M3.92857441,4.14284182 L1.42857143,4.14284182 L1.42857143,5.57141495 L3.92857441,5.57141495 L3.92857441,4.14284182 Z M18.571449,15.5714269 L10.3571535,15.5714269 L10.3571535,17 L18.571449,17 L18.571449,15.5714269 Z M7.85715052,2.71426868 L5.00000426,2.71426868 C4.60937879,2.71426868 4.28571769,3.03792978 4.28571769,3.42855525 L4.28571769,6.28570151 C4.28571769,6.67632698 4.60937879,6.99998808 5.00000426,6.99998808 L7.85715052,6.99998808 C8.24777599,6.99998808 8.57143709,6.67632698 8.57143709,6.28570151 L8.57143709,3.42855525 C8.57143709,3.03792978 8.24777599,2.71426868 7.85715052,2.71426868 Z M15.0000162,8.42856121 L12.1428699,8.42856121 C11.7522444,8.42856121 11.4285833,8.75222231 11.4285833,9.14284778 L11.4285833,11.999994 C11.4285833,12.3906195 11.7522444,12.7142806 12.1428699,12.7142806 L15.0000162,12.7142806 C15.3906416,12.7142806 15.7143027,12.3906195 15.7143027,11.999994 L15.7143027,9.14284778 C15.7143027,8.75222231 15.3906416,8.42856121 15.0000162,8.42856121 Z M18.571449,9.85713434 L16.071446,9.85713434 L16.071446,11.2857075 L18.571449,11.2857075 L18.571449,9.85713434 Z M18.571449,4.14284182 L8.92858037,4.14284182 L8.92858037,5.57141495 L18.571449,5.57141495 L18.571449,4.14284182 Z"></path></g></svg>