<svg height="100%" viewBox="0 0 24 24" width="100%" xmlns="http://www.w3.org/2000/svg" preserveAspectRatio="xMidYMid meet"><path id="twitter" d="M20.2520355,6.55726731 C20.2520355,6.55726731 21.8562324,6.42875416 22.5,5.94165563 C22.5,5.94165563 22.3457047,6.50239653 20.4153512,8.27655185 C20.4153512,8.27655185 21.0652907,17.8495783 11.1619033,20.194101 C11.1619033,20.194101 6.13947112,21.2818902 2.5,18.5070651 C2.5,18.5070651 6.30990813,19.1943939 8.45342654,16.7906685 C8.45342654,16.7906685 5.68845396,16.8190665 4.81395542,13.9590472 C4.81395542,13.9590472 5.85794147,14.1876755 6.47844614,13.9017699 C6.47844614,13.9017699 3.346488,13.2433204 3.40298384,9.78212915 C3.40298384,9.78212915 4.24947184,10.4116992 5.01097871,10.2971444 C5.01097871,10.2971444 2.18998504,7.86502098 3.93898212,4.83365085 C3.93898212,4.83365085 7.71898071,9.36530375 12.4038621,9.09624436 C12.3222043,8.77183288 12.2780521,8.43201907 12.2780521,8.08065356 C12.2780521,5.82758215 14.0806965,4 16.3039737,4 C17.4272438,4 18.4432193,4.46688298 19.1738671,5.21919031 C19.7093907,5.22833544 20.810822,5.13158958 21.9108292,4.33307528 C21.9108292,4.33355661 21.9739716,5.20619459 20.2520355,6.55726731 L20.2520355,6.55726731 Z"/></svg>