<svg height="100%" viewBox="0 0 24 24" width="100%" xmlns="http://www.w3.org/2000/svg" preserveAspectRatio="xMidYMid meet"><path id="visible" d="M12,6 C8.14858491,6 4.56132075,9.75471698 2,12 C4.5754717,14.2570755 8.14858491,18 12,18 C15.8514151,18 19.3113208,14.3584906 22,12 C19.2311321,9.57311321 15.8514151,6 12,6 Z M12,16 C9.74528302,16 8,14.254717 8,12 C8,9.74528302 9.74528302,8 12,8 C14.254717,8 16,9.74528302 16,12 C16,14.254717 14.254717,16 12,16 Z M12,14 C13.1045695,14 14,13.1045695 14,12 C14,10.8954305 13.1045695,10 12,10 C10.8954305,10 10,10.8954305 10,12 C10,13.1045695 10.8954305,14 12,14 Z"/></svg>