<svg preserveAspectRatio="xMidYMid meet" height="100%" width="100%" xmlns="http://www.w3.org/2000/svg" viewBox="0 0 24 32"><defs><linearGradient id="a" x1="0%" y1="0%" y2="100%"><stop stop-color="#000000" stop-opacity=".2" offset="0%"/><stop stop-color="#000000" stop-opacity="0" offset="100%"/></linearGradient></defs><g fill="none" fill-rule="evenodd"><path fill="#EC4B2F" d="M3,1.06586616e-15 L15,0 L24,9 L24,29 L24,29 C24,30.6568542 22.6568542,32 21,32 L3,32 L3,32 C1.34314575,32 2.02906125e-16,30.6568542 0,29 L0,3 L4.4408921e-16,3 C2.41183085e-16,1.34314575 1.34314575,2.52480524e-15 3,2.22044605e-15 Z"/><path fill="#FFFFFF" fill-opacity=".4" d="M24,9 L18,9 L18,9 C16.3431458,9 15,7.65685425 15,6 L15,-1.0658141e-14 L24,9 Z" style="mix-blend-mode:lighten"/><path fill="url(#a)" d="M24,9 L18,9 C17.1523823,9 16.3868673,8.64847631 15.8412861,8.08325999 C15.4940351,7.72351158 18.2136064,10.3624249 24,16 L24,9 Z" style="mix-blend-mode:hard-light"/><path fill="#FFFFFF" d="M5.58578644,16 L4.17157288,14.5857864 L5.58578644,13.1715729 L7,14.5857864 L8.41421356,13.1715729 L9.82842712,14.5857864 L8.41421356,16 L9.82842712,17.4142136 L8.41421356,18.8284271 L7,17.4142136 L5.58578644,18.8284271 L4.17157288,17.4142136 L5.58578644,16 Z M9,24 L15,24 L15,26 L9,26 L9,24 Z M15.5857864,16 L14.1715729,14.5857864 L15.5857864,13.1715729 L17,14.5857864 L18.4142136,13.1715729 L19.8284271,14.5857864 L18.4142136,16 L19.8284271,17.4142136 L18.4142136,18.8284271 L17,17.4142136 L15.5857864,18.8284271 L14.1715729,17.4142136 L15.5857864,16 Z"/></g></svg>