<svg preserveAspectRatio="xMidYMid meet" height="100%" width="100%" xmlns="http://www.w3.org/2000/svg" viewBox="0 0 32 28"><g id="pages-attach" fill="none" fill-rule="evenodd"><rect width="32" height="28" fill="#F7AC00" rx="2"/><g fill="#FFFFFF" fill-rule="nonzero" transform="translate(6 5)"><path d="M3.33333333,0 C3.33333333,0 7.33333333,6.59194921e-15 9,2.23529412 L9,19 C7.33333333,16.7647059 3.33333333,16.7647059 3.33333333,16.7647059 L1.10995173,16.7647059 C0.496942319,16.7647059 0,16.2629715 0,15.6386944 L0,1.1260115 C0,0.504132521 0.491844813,0 1.10995173,0 L3.33333333,0 Z"/><path fill-opacity=".75" d="M14.3333333,0 C14.3333333,0 18.3333333,6.59194921e-15 20,2.23529412 L20,19 C18.3333333,16.7647059 14.3333333,16.7647059 14.3333333,16.7647059 L12.1099517,16.7647059 C11.4969423,16.7647059 11,16.2629715 11,15.6386944 L11,1.1260115 C11,0.504132521 11.4918448,0 12.1099517,0 L14.3333333,0 Z" transform="matrix(-1 0 0 1 31 0)"/></g></g></svg>