<svg height="100%" viewBox="0 0 24 24" width="100%" xmlns="http://www.w3.org/2000/svg" preserveAspectRatio="xMidYMid meet"><g id="icon-hangouts" fill-rule="evenodd"><path d="M11.9992795,2 C7.16930836,2 3.25,5.91930836 3.25,10.7492795 C3.25,15.3487032 7.39409222,19.0835735 11.9992795,19.0835735 L11.9992795,22 C17.2961095,19.4178674 20.7485591,15.1527378 20.7485591,10.7492795 C20.7485591,5.91930836 16.8292507,2 11.9992795,2 Z M11.5842939,12 C11.5842939,13.1527378 10.8407781,14.0806916 9.9185879,14.0806916 L9.9185879,12 L7.83789625,12 L7.83789625,8.24783862 L11.5900576,8.24783862 L11.5900576,12 L11.5842939,12 Z M16.5814121,12 C16.5814121,13.1527378 15.8378963,14.0806916 14.9157061,14.0806916 L14.9157061,12 L12.8350144,12 L12.8350144,8.24783862 L16.5871758,8.24783862 L16.5871758,12 L16.5814121,12 Z" id="Shape"></path></g></svg>