<svg height="100%" viewBox="0 0 30 30" width="100%" xmlns="http://www.w3.org/2000/svg" preserveAspectRatio="xMidYMid meet"><g id="icon-members-circle" fill-rule="evenodd"><path d="M15,30 C23.2842712,30 30,23.2842712 30,15 C30,6.71572875 23.2842712,0 15,0 C6.71572875,0 0,6.71572875 0,15 C0,23.2842712 6.71572875,30 15,30 Z M24.1166473,15.93046 C23.6460098,16.2637401 23.0914223,16.2680559 22.551689,16.3191269 C22.3630411,16.9380208 22.5100973,17.221141 23.1210348,17.3943986 C23.3508911,17.4595681 23.587839,17.499226 23.8208098,17.5539415 C24.7858515,17.7807158 25.4635369,18.5843763 25.4490182,19.5061474 C25.3831328,19.510655 25.315139,19.5191908 25.2471453,19.5192388 C24.1050994,19.520102 22.9631015,19.5191908 21.8211036,19.5208213 C21.7059119,19.5209651 21.6378703,19.5004408 21.5572265,19.3843922 C20.9900369,18.567976 20.2682203,17.9776627 19.2273744,17.8968123 C19.1796494,17.8931199 19.1245453,17.9030463 19.0857328,17.8823782 C19.0144328,17.8444466 18.9063328,17.7943347 18.8992411,17.7384204 C18.8910953,17.6743059 18.9611973,17.5768635 19.0243994,17.5329376 C19.1063369,17.4759683 19.2132869,17.4511761 19.3126661,17.424226 C19.4356203,17.390946 19.5632703,17.3750252 19.686464,17.3421768 C20.2944786,17.1800924 20.3424432,17.1732829 20.2678369,16.4090885 C19.858389,16.314811 19.4504744,16.245086 19.058564,16.1237624 C18.6815078,16.0070425 18.6787765,15.9533341 18.8527619,15.5975636 C19.0835286,15.1255527 19.1153932,14.6155623 19.1288578,14.1030783 C19.1435203,13.5443187 19.1313494,12.983593 19.1737078,12.4269914 C19.2815203,11.0113903 20.0979723,10.2833532 21.5176473,10.3052682 C22.7898828,10.3248814 23.5948348,11.105476 23.6760057,12.4217644 C23.7019765,12.8430399 23.6875536,13.2673846 23.679839,13.6900988 C23.6583723,14.8691429 23.6613911,14.8974357 24.1166473,15.93046 Z M12.3165932,14.6369018 C12.0889411,14.6340246 11.9651723,14.4964926 11.9183578,14.3087529 C11.8067119,13.8610067 11.7021578,13.4104792 11.6228557,12.9561633 C11.5931473,12.7860706 11.6300911,12.5956934 11.862439,12.5568507 C11.6537619,11.9226595 11.5861036,11.2838168 11.6397703,10.6349517 C11.7391015,9.4330815 12.3909119,8.63733342 13.5020994,8.23217038 C14.5303432,7.85721833 15.5458411,7.93015631 16.4949265,8.49668444 C17.3767848,9.02302716 17.8106703,9.83647025 17.8162765,10.8474357 C17.8193911,11.4073942 17.7125848,11.9678801 17.6520182,12.5605911 C17.8230807,12.6055719 17.8444515,12.8068347 17.8070765,13.0038296 C17.7242286,13.4415534 17.6237953,13.876304 17.5167973,14.3089447 C17.4699828,14.498219 17.3543119,14.6389159 17.1364348,14.6363264 C17.0971432,14.924242 17.0667161,15.2017516 17.0196619,15.4764319 C16.9635515,15.8039575 16.8358536,16.0941749 16.6036973,16.3472279 C16.5027848,16.4572343 16.438864,16.6373015 16.4312453,16.7891717 C16.4173494,17.0661538 16.4576953,17.3458213 16.4759994,17.6243859 C16.4940161,17.8985387 16.6420786,18.0687273 16.9037515,18.132602 C17.5068307,18.2798206 18.1095265,18.429389 18.7158161,18.5622215 C20.2512098,18.8985706 21.3265078,20.1449421 21.3762932,21.6594242 C21.3778265,21.7055559 21.3764848,21.7517835 21.3764848,21.8093763 L8.05934109,21.8093763 C8.08056817,20.8621416 8.38895984,20.0552682 9.08063692,19.4092804 C9.65961401,18.8685515 10.3822453,18.660719 11.1341057,18.5123974 C11.5559161,18.4291972 11.9744203,18.327391 12.3916307,18.2228993 C12.7921661,18.1225796 12.9907328,17.8559555 12.9935598,17.4422567 C12.9943265,17.330524 12.9915473,17.2174485 13.0070723,17.1073462 C13.0512036,16.7937752 12.9981598,16.5322343 12.7708432,16.2764958 C12.4066286,15.8667292 12.4089286,15.3203897 12.3329328,14.8094882 C12.3260328,14.7622055 12.3238286,14.7143475 12.3165932,14.6369018 Z M4.00194942,19.5199101 C3.95772234,18.6047567 4.67100984,17.7608149 5.63509317,17.5535578 C5.89197442,17.4983149 6.15062859,17.446141 6.40185567,17.3706135 C6.86281401,17.2320265 6.94465567,17.1088328 6.93320359,16.6290534 C6.93095151,16.5337688 6.91959526,16.4386282 6.91178484,16.3349517 C6.65576609,16.3105911 6.40080151,16.3077618 6.15580359,16.2569306 C5.92455776,16.2090246 5.70232026,16.1146512 5.47888484,16.0331774 C5.34658692,15.9849357 5.31409942,15.8834172 5.38975984,15.7667931 C5.81770359,15.1070905 5.75268067,14.3654344 5.75986817,13.6321704 C5.76518692,13.0911058 5.73519109,12.5386282 5.83198276,12.01171 C6.08153276,10.6532701 7.12764942,10.2153545 8.26974317,10.3383085 C9.58333067,10.4798206 10.2660473,11.2927842 10.3026078,12.7027266 C10.3150182,13.181499 10.3027994,13.6608468 10.3051473,14.1400029 C10.3079265,14.7049006 10.3769744,15.2551243 10.6899182,15.7455495 C10.7797619,15.8863424 10.7238911,15.9850316 10.5886703,16.0221 C10.2002578,16.1284619 9.81098276,16.2393315 9.41499942,16.3076659 C9.15260776,16.3528865 9.12045567,16.351352 9.13588484,16.6279025 C9.16506609,17.1506007 9.17402651,17.1549645 9.67465984,17.2823302 C9.91294942,17.342944 10.1509036,17.4132445 10.3774536,17.5071384 C10.4546473,17.5391237 10.4965744,17.6564671 10.5546015,17.7348718 C10.4758744,17.7730431 10.3997348,17.8374453 10.317989,17.8455016 C9.29190151,17.9467324 8.53227859,18.4746096 7.96805984,19.3108788 C7.86963901,19.4568027 7.77112234,19.5264319 7.58482234,19.5248015 C6.46750151,19.5149229 5.35003692,19.5199101 4.23257234,19.5199101 L4.00194942,19.5199101 Z"></path></g></svg>