<svg height="100%" viewBox="0 0 24 24" width="100%" xmlns="http://www.w3.org/2000/svg" preserveAspectRatio="xMidYMid meet"><path id="pagegroup-new" fill-rule="evenodd" d="M14.0343018,5 L7.5,5 C6.675,5 6,5.675 6,6.5 L6,18 L7.5,18 L7.5,6.5 L15.5,6.5 L14.0343018,5 Z M10.9956055,2 L4.5,2 C3.675,2 3,2.675 3,3.5 L3,15 L4.5,15 L4.5,3.5 L12.4976807,3.5 L10.9956055,2 Z M17,8 L10.6,8 C9.72,8 9,8.7 9,9.55555556 L9,20.4444444 C9,21.3 9.72,22 10.6,22 L19.4,22 C20.28,22 21,21.3 21,20.4444444 L21,12 L17,8 Z M19.5,20.5 L10.5,20.5 L10.5,9.5 L16,9.5 L16,13 L19.5,13 L19.5,20.5 Z"/></svg>