<svg height="100%" viewBox="0 0 20 20" width="100%" xmlns="http://www.w3.org/2000/svg" preserveAspectRatio="xMidYMid meet"><g id="icon-delete-circle" fill-rule="evenodd"><path d="M10,20 C15.5228475,20 20,15.5228475 20,10 C20,4.4771525 15.5228475,0 10,0 C4.4771525,0 0,4.4771525 0,10 C0,15.5228475 4.4771525,20 10,20 Z M10,18.5 C14.6944204,18.5 18.5,14.6944204 18.5,10 C18.5,5.30557963 14.6944204,1.5 10,1.5 C5.30557963,1.5 1.5,5.30557963 1.5,10 C1.5,14.6944204 5.30557963,18.5 10,18.5 Z M8.44771525,10.3333333 L5.71188544,7.59750353 L7.126099,6.18328996 L9.86192881,8.91911977 L12.5977586,6.18328996 L14.0119722,7.59750353 L11.2761424,10.3333333 L14.0119722,13.0691631 L12.5977586,14.4833767 L9.86192881,11.7475469 L7.126099,14.4833767 L5.71188544,13.0691631 L8.44771525,10.3333333 L8.44771525,10.3333333 Z" id="delete"></path></g></svg>