<svg viewBox="0 0 24 24" xmlns="http://www.w3.org/2000/svg">
<path d="M19 18V15C19 14.45 19.45 14 20 14C20.55 14 21 14.45 21 15V19C21 20.1 20.1 21 19 21H5C3.9 21 3 20.1 3 19V15C3 14.45 3.45 14 4 14C4.55 14 5 14.45 5 15V18C5 18.55 5.45 19 6 19H18C18.55 19 19 18.55 19 18Z M14.88 10.79L13 12.67L13 4C13 3.45 12.55 3 12 3C11.45 3 11 3.45 11 4L11 12.67L9.10999 10.79C8.71999 10.4 8.08999 10.4 7.69999 10.79C7.51273 10.9768 7.4075 11.2305 7.4075 11.495C7.4075 11.7595 7.51273 12.0132 7.69999 12.2L11.29 15.79C11.68 16.18 12.31 16.18 12.7 15.79L16.29 12.2C16.68 11.81 16.68 11.18 16.29 10.79C15.9 10.4 15.27 10.4 14.88 10.79Z"/>
</svg>
