<svg height="100%" viewBox="0 0 30 30" width="100%" xmlns="http://www.w3.org/2000/svg" preserveAspectRatio="xMidYMid meet"><g id="icon-pages-30px" fill-rule="evenodd"><path d="M5.60312666,4 L5.60312666,4 C8.68231985,4 12.6872457,4.62668481 14.5187496,7.56650416 L14.5187496,27.6286015 C12.7782521,26.4124884 9.90317939,24.9782201 6.02746549,24.9782201 C5.48421734,24.9782201 4.93431542,25.0070778 4.38012075,25.064147 C3.64305471,25.1399522 3,24.567537 3,23.8241294 L3,5.29234898 C3,4.63056121 3.51405742,4.0863576 4.1723514,4.04522468 C4.60527575,4.01830523 5.08799605,4 5.60312666,4" id="left" fill-opacity="1.0"></path><path d="M25.4362669,4 C25.9513975,4 26.4341178,4.01830523 26.8670421,4.04522468 C27.5253361,4.0863576 28.0393935,4.63056121 28.0393935,5.29234898 L28.0393935,23.8241294 C28.0393935,24.567537 27.3963388,25.1399522 26.6592728,25.064147 C26.1050781,25.0070778 25.5549615,24.9782201 25.0112841,24.9782201 C21.1362141,24.9782201 18.2607122,26.4124884 16.52,27.6286015 L16.52,7.56650416 C18.3517186,4.62668481 22.3570737,4 25.4362669,4" id="right" fill-opacity="0.8"></path></g></svg>