<svg height="100%" viewBox="0 0 24 24" width="100%" xmlns="http://www.w3.org/2000/svg" preserveAspectRatio="xMidYMid meet"><path id="user" d="M8.75404251,11.1315591 C8.44635113,11.1276003 8.27906701,10.9383733 8.21579308,10.6800665 C8.06489413,10.064023 7.92358017,9.44415265 7.81639658,8.81907001 C7.77624321,8.5850434 7.82617587,8.32310778 8.14021407,8.269665 C7.85816904,7.39709609 7.76672298,6.51812725 7.8392581,5.62536884 C7.97351283,3.97174355 8.85449069,2.87689225 10.3563562,2.31943783 C11.7461161,1.80355002 13.1186489,1.90390369 14.4014195,2.68337659 C15.593327,3.4075593 16.1797604,4.52675676 16.1873378,5.91772066 C16.1915474,6.68815447 16.0471895,7.45931405 15.9653285,8.27481134 C16.1965342,8.33669941 16.2254187,8.6136122 16.1749032,8.88465289 C16.0629271,9.48690687 15.9271828,10.0850702 15.7825659,10.6803304 C15.719292,10.9407485 15.5629529,11.1343302 15.2684732,11.1307673 C15.2153672,11.5269037 15.1742424,11.9087227 15.1106446,12.286649 C15.0348065,12.7372838 14.8622118,13.1365872 14.5484327,13.484757 C14.4120407,13.6361122 14.3256462,13.8838624 14.3153488,14.0928171 C14.2965674,14.4739103 14.3510983,14.8586984 14.375838,15.2419689 C14.400189,15.6191694 14.6003082,15.853328 14.9539817,15.9412117 C15.7690951,16.1437664 16.5836904,16.3495541 17.4031429,16.5323152 C19.4783597,16.9950902 20.9317173,18.7099437 20.9990066,20.7936845 C21.001079,20.857156 20.9992657,20.9207595 20.9992657,21 L3,21 C3.02869023,19.6967218 3.4455081,18.5865635 4.3803692,17.6977638 C5.16290654,16.9537875 6.13960486,16.6678356 7.1558089,16.4637633 C7.72592198,16.3492902 8.29156637,16.2092173 8.85546215,16.0654496 C9.39682023,15.9274221 9.66520016,15.5605803 9.66902121,14.9913816 C9.67005742,14.8376512 9.66630114,14.6820733 9.68728451,14.5305861 C9.7469317,14.0991511 9.6752385,13.739303 9.36800047,13.3874383 C8.87573312,12.82365 8.87884177,12.0719541 8.77612686,11.3690166 C8.76680092,11.3039615 8.7638218,11.2381147 8.75404251,11.1315591 L8.75404251,11.1315591 Z"/></svg>