<svg height="100%" viewBox="0 0 20 20" width="100%" xmlns="http://www.w3.org/2000/svg" preserveAspectRatio="xMidYMid meet"><g id="icon-unarchive" fill-rule="evenodd"><path d="M12,11.75 C12,12.1601562 11.6979167,12.5 11.3333333,12.5 L8.66666667,12.5 C8.30208333,12.5 8,12.1601562 8,11.75 C8,11.3398438 8.30208333,11 8.66666667,11 L11.3333333,11 C11.6979167,11 12,11.3398438 12,11.75 Z M17,9.64705882 C17,9.29319853 16.7356771,9 16.4166667,9 L3.58333333,9 C3.26432292,9 3,9.29319853 3,9.64705882 L3,19.3529412 C3,19.7068015 3.26432292,20 3.58333333,20 L16.4166667,20 C16.7356771,20 17,19.7068015 17,19.3529412 L17,9.64705882 Z M16.9057909,1.56345673 C16.823225,1.25531633 16.4854685,1.0721707 16.1603973,1.15927326 L1.89441585,4.98183146 C1.56934465,5.06893403 1.36841176,5.39642105 1.45097773,5.70456145 L2.05488883,7.95838838 C2.13745481,8.26652878 2.47521131,8.44967442 2.8002825,8.36257186 L17.0662639,4.54001365 C17.3913351,4.45291109 17.592268,4.12542406 17.5097021,3.81728366 L16.9057909,1.56345673 Z"></path></g></svg>