<svg width="24" height="24" viewBox="0 0 24 24" fill="none" xmlns="http://www.w3.org/2000/svg">
<path fill-rule="evenodd" clip-rule="evenodd" d="M4 1C2.89543 1 2 1.89543 2 3V17C2 18.1046 2.89543 19 4 19H14C15.1046 19 16 18.1046 16 17V8.82843C16 8.29799 15.7893 7.78929 15.4142 7.41421L9.58579 1.58579C9.21071 1.21071 8.70201 1 8.17157 1H4ZM12.5858 9H9C8.44772 9 8 8.55228 8 8V4.41421C8 3.52331 9.07714 3.07714 9.70711 3.70711L13.2929 7.29289C13.9229 7.92286 13.4767 9 12.5858 9Z" fill="#434F59"/>
<path fill-rule="evenodd" clip-rule="evenodd" d="M19 9C19.5523 9 20 9.44772 20 10V19C20 21.2091 18.2091 23 16 23H6C5.44772 23 5 22.5523 5 22C5 21.4477 5.44772 21 6 21H16C17.1046 21 18 20.1046 18 19V10C18 9.44772 18.4477 9 19 9Z" fill="#434F59"/>
</svg>
