<svg width="24" height="24" viewBox="0 0 24 24" fill="none" xmlns="http://www.w3.org/2000/svg">
<path d="M19 3H5C3.89 3 3 3.89 3 5V19C3 19.5304 3.21071 20.0391 3.58579 20.4142C3.96086 20.7893 4.46957 21 5 21H19C19.5304 21 20.0391 20.7893 20.4142 20.4142C20.7893 20.0391 21 19.5304 21 19V5C21 3.89 20.1 3 19 3Z" fill="white"/>
<path fill-rule="evenodd" clip-rule="evenodd" d="M3 5C3 3.89543 3.89543 3 5 3H19C20.1046 3 21 3.89543 21 5V19C21 20.1046 20.1046 21 19 21H5C3.89543 21 3 20.1046 3 19V5ZM8.5 9.1609V14.7405C8.5 15.5163 9.34513 15.9966 10.0117 15.5996L14.9713 12.6458C15.6416 12.2466 15.617 11.2678 14.9275 10.9028L9.96789 8.27712C9.30189 7.92453 8.5 8.40733 8.5 9.1609Z" fill="#8997A1"/>
</svg>
