<svg height="100%" viewBox="0 0 24 24" width="100%" xmlns="http://www.w3.org/2000/svg" preserveAspectRatio="xMidYMid meet">
<path fill-rule="evenodd" clip-rule="evenodd" d="M8.1 13.25C6.72 13.25 5.6 12.13 5.6 10.75C5.6 9.75 6.19 8.9 7.03 8.5C6.19 8.1 5.6 7.25 5.6 6.25C5.6 4.87 6.72 3.75 8.1 3.75C8.63 3.75 9.12 3.91 9.52 4.19L9.5 4C9.5 2.62 10.62 1.5 12 1.5C13.38 1.5 14.5 2.62 14.5 4L14.48 4.19C14.89 3.91 15.37 3.75 15.9 3.75C17.28 3.75 18.4 4.87 18.4 6.25C18.4 7.25 17.81 8.1 16.97 8.5C17.81 8.9 18.4 9.75 18.4 10.75C18.4 12.13 17.28 13.25 15.9 13.25C15.37 13.25 14.88 13.09 14.48 12.81L14.5 13C14.5 14.38 13.38 15.5 12 15.5C10.62 15.5 9.5 14.38 9.5 13L9.52 12.81C9.11 13.09 8.63 13.25 8.1 13.25ZM20.92 14.7C20.33 19.1 16.56 22.5 12 22.5C12 17.94 15.4 14.17 19.8 13.58C20.44 13.49 21.01 14.06 20.92 14.7ZM12 22.5C12 17.94 8.6 14.17 4.2 13.58C3.56 13.49 2.99 14.06 3.08 14.7C3.67 19.1 7.44 22.5 12 22.5ZM12 6C13.38 6 14.5 7.12 14.5 8.5C14.5 9.88 13.38 11 12 11C10.62 11 9.5 9.88 9.5 8.5C9.5 7.12 10.62 6 12 6Z"/>
</svg>
