<svg height="100%" viewBox="0 0 24 24" width="100%" xmlns="http://www.w3.org/2000/svg" preserveAspectRatio="xMidYMid meet"><path id="facebook" d="M20.0065082,3 L3.99342438,3 C3.44471421,3 3,3.44471421 3,3.99342438 L3,20.0065082 C3,20.5551509 3.44471421,21 3.99342438,21 L12.6143652,21 L12.6143652,14.0294385 L10.2685888,14.0294385 L10.2685888,11.3128646 L12.6143652,11.3128646 L12.6143652,9.3094925 C12.6143652,6.98462317 14.0342944,5.71866464 16.1082785,5.71866464 C17.1017704,5.71866464 17.9555893,5.79258135 18.2043837,5.82562806 L18.2043837,8.25530265 L16.7659754,8.25597707 C15.6380712,8.25597707 15.4196257,8.79194065 15.4196257,9.5784522 L15.4196257,11.3128646 L18.1096948,11.3128646 L17.7594672,14.0294385 L15.4196257,14.0294385 L15.4196257,21 L20.0065082,21 C20.5551509,21 20.9999326,20.5551509 20.9999326,20.0065082 L20.9999326,3.99342438 C20.9999326,3.44471421 20.5551509,3 20.0065082,3"/></svg>