<svg width="24" height="24" viewBox="0 0 24 24" fill="none" xmlns="http://www.w3.org/2000/svg">
<path d="M18 18H12V12.21C11.34 12.82 10.47 13.2 9.5 13.2C7.46 13.2 5.8 11.54 5.8 9.5C5.8 8.5187 6.18982 7.57759 6.88371 6.88371C7.57759 6.18982 8.5187 5.8 9.5 5.8C11.54 5.8 13.2 7.46 13.2 9.5C13.2 10.47 12.82 11.34 12.21 12H18V18ZM19 3H5C3.89 3 3 3.89 3 5V19C3 19.5304 3.21071 20.0391 3.58579 20.4142C3.96086 20.7893 4.46957 21 5 21H19C19.5304 21 20.0391 20.7893 20.4142 20.4142C20.7893 20.0391 21 19.5304 21 19V5C21 3.89 20.1 3 19 3Z" fill="#DB4437"/>
</svg>
