<svg height="100%" viewBox="0 0 20 20" width="100%" xmlns="http://www.w3.org/2000/svg" preserveAspectRatio="xMidYMid meet"><g id="icon-cog" fill-rule="evenodd"><path d="M13,10.2856956 C13,11.9380393 11.6523438,13.2856956 10,13.2856956 C8.34765625,13.2856956 7,11.9380393 7,10.2856956 C7,8.6333518 8.34765625,7.28569555 10,7.28569555 C11.6523438,7.28569555 13,8.6333518 13,10.2856956 Z M19,9.0083518 C19,8.80913305 18.859375,8.62163305 18.6601562,8.5864768 L16.515625,8.2583518 C16.3984375,7.87163305 16.234375,7.4849143 16.0351562,7.1099143 C16.4335938,6.55913305 16.8671875,6.04350805 17.265625,5.50444555 C17.3242188,5.4224143 17.359375,5.34038305 17.359375,5.2349143 C17.359375,5.1411643 17.3359375,5.0474143 17.2773438,4.9771018 C16.7851562,4.28569555 15.9648438,3.55913305 15.34375,2.9849143 C15.2617188,2.9146018 15.15625,2.8677268 15.0507812,2.8677268 C14.9453125,2.8677268 14.8398438,2.90288305 14.7695312,2.97319555 L13.1054688,4.2271018 C12.765625,4.05132055 12.4140625,3.91069555 12.0507812,3.79350805 L11.7226562,1.63725805 C11.6992188,1.4380393 11.5117188,1.28569555 11.3007812,1.28569555 L8.69921875,1.28569555 C8.48828125,1.28569555 8.32421875,1.42632055 8.27734375,1.61382055 C8.08984375,2.31694555 8.01953125,3.0786643 7.9375,3.79350805 C7.57421875,3.91069555 7.2109375,4.0630393 6.87109375,4.23882055 L5.25390625,2.9849143 C5.16015625,2.9146018 5.0546875,2.8677268 4.94921875,2.8677268 C4.55078125,2.8677268 2.96875,4.5786643 2.6875,4.96538305 C2.62890625,5.0474143 2.58203125,5.12944555 2.58203125,5.2349143 C2.58203125,5.34038305 2.62890625,5.43413305 2.69921875,5.5161643 C3.1328125,6.04350805 3.5546875,6.5708518 3.953125,7.1333518 C3.765625,7.4849143 3.61328125,7.8364768 3.49609375,8.2114768 L1.31640625,8.5396018 C1.140625,8.57475805 1,8.78569555 1,8.9614768 L1,11.5630393 C1,11.7622581 1.140625,11.9497581 1.33984375,11.9849143 L3.484375,12.3013206 C3.6015625,12.6997581 3.765625,13.0864768 3.96484375,13.4614768 C3.56640625,14.0122581 3.1328125,14.5278831 2.734375,15.0669456 C2.67578125,15.1489768 2.640625,15.2310081 2.640625,15.3364768 C2.640625,15.4302268 2.6640625,15.5239768 2.72265625,15.6060081 C3.21484375,16.2856956 4.03515625,17.0122581 4.65625,17.5747581 C4.73828125,17.6567893 4.84375,17.7036643 4.94921875,17.7036643 C5.0546875,17.7036643 5.16015625,17.6685081 5.2421875,17.5981956 L6.89453125,16.3442893 C7.234375,16.5200706 7.5859375,16.6606956 7.94921875,16.7778831 L8.27734375,18.9341331 C8.30078125,19.1333518 8.48828125,19.2856956 8.69921875,19.2856956 L11.3007812,19.2856956 C11.5117188,19.2856956 11.6757812,19.1450706 11.7226562,18.9575706 C11.9101562,18.2544456 11.9804688,17.4927268 12.0625,16.7778831 C12.4257812,16.6606956 12.7890625,16.5083518 13.1289062,16.3325706 L14.7460938,17.5981956 C14.8398438,17.6567893 14.9453125,17.7036643 15.0507812,17.7036643 C15.4492188,17.7036643 17.03125,15.9810081 17.3125,15.6060081 C17.3828125,15.5239768 17.4179688,15.4419456 17.4179688,15.3364768 C17.4179688,15.2310081 17.3710938,15.1255393 17.3007812,15.0435081 C16.8671875,14.5161643 16.4453125,14.0005393 16.046875,13.4263206 C16.234375,13.0864768 16.375,12.7349143 16.5039062,12.3599143 L18.671875,12.0317893 C18.859375,11.9966331 19,11.7856956 19,11.6099143 L19,9.0083518 Z"></path></g></svg>