<svg height="100%" viewBox="0 0 24 24" width="100%" xmlns="http://www.w3.org/2000/svg" preserveAspectRatio="xMidYMid meet"><path id="fullscreen-exit" d="M16,6.58693154 L19.3299999,3.26000023 L20.7399998,4.67000008 L17.4130685,8 L21,8 L21,10 L14,10 L14,3 L16,3 L16,6.58693154 Z M8,17.4130685 L4.67000008,20.7399998 L3.26000023,19.3299999 L6.58693154,16 L3,16 L3,14 L10,14 L10,21 L8,21 L8,17.4130685 Z M17.4130685,16 L20.7399998,19.3299999 L19.3299999,20.7399998 L16,17.4130685 L16,21 L14,21 L14,14 L21,14 L21,16 L17.4130685,16 Z M6.58693154,8 L3.26000023,4.67000008 L4.67000008,3.26000023 L8,6.58693154 L8,3 L10,3 L10,10 L3,10 L3,8 L6.58693154,8 Z"/></svg>