<svg width="24" height="24" viewBox="0 0 24 24" fill="none" xmlns="http://www.w3.org/2000/svg">
<path d="M19 3H5C3.89 3 3 3.89 3 5V19C3 19.5304 3.21071 20.0391 3.58579 20.4142C3.96086 20.7893 4.46957 21 5 21H19C19.5304 21 20.0391 20.7893 20.4142 20.4142C20.7893 20.0391 21 19.5304 21 19V5C21 3.89 20.1 3 19 3Z" fill="white"/>
<path fill-rule="evenodd" clip-rule="evenodd" d="M21 5C21 3.89543 20.1046 3 19 3H5C3.9 3 3 3.89 3 5V19C3 20.1046 3.89543 21 5 21H19C20.1046 21 21 20.1046 21 19V5ZM10.0821 14.6717H13.9044L14.7108 17H16.5L12.7658 7H11.2274L7.5 17H9.28238L10.0821 14.6717ZM13.4232 13.2706H10.5633L11.9932 9.12225L13.4232 13.2706Z" fill="#A33639"/>
</svg>
