<svg viewBox="0 0 24 24" xmlns="http://www.w3.org/2000/svg">
<path d="M13 19C13 19.55 12.55 20 12 20C11.45 20 11 19.55 11 19V5C11 4.45 11.45 4 12 4C12.55 4 13 4.45 13 5V19Z M19 9.21003V11H16C15.45 11 15 11.45 15 12C15 12.55 15.45 13 16 13H19V14.79C19 15.24 19.54 15.46 19.85 15.15L22.64 12.36C22.84 12.16 22.84 11.85 22.64 11.65L19.85 8.86003C19.54 8.54003 19 8.76003 19 9.21003Z M4.99999 14.79V13H7.99999C8.54999 13 8.99999 12.55 8.99999 12C8.99999 11.45 8.54999 11 7.99999 11H4.99999V9.21003C4.99999 8.76003 4.45999 8.54003 4.14999 8.86003L1.35999 11.65C1.15999 11.85 1.15999 12.16 1.35999 12.36L4.14999 15.15C4.45999 15.46 4.99999 15.24 4.99999 14.79Z"/>
</svg>
