<svg height="100%" viewBox="0 0 20 20" width="100%" xmlns="http://www.w3.org/2000/svg" preserveAspectRatio="xMidYMid meet"><g id="icon-panel-open" fill-rule="evenodd"><path d="M18.0008785,3 L2.00790668,3 C0.903392064,3 0.0187808092,3.89640225 0.0187808092,5.00313352 L0,14.4968665 C0,15.6035978 0.894606862,16.5 1.99912148,16.5 L17.9920933,16.5 C19.0966079,16.5 19.9912148,15.6035978 19.9912148,14.4968665 L20,5.00313352 C20,3.89640225 19.1053931,3 18.0008785,3 Z M17.9920933,14.4968665 L2.02905925,14.4968665 L1.99912148,4.98198227 L17.9621555,4.98198227 L17.9920933,14.4968665 Z M16.2003807,11.9103203 L13.9088877,9.61422853 L16.2003807,7.31813673 L15.4931915,6.60952825 L12.4945092,9.61422853 L15.4931915,12.6189288 L16.2003807,11.9103203 Z" id="shape"></path></g></svg>