<svg height="100%" viewBox="0 0 20 20" width="100%" xmlns="http://www.w3.org/2000/svg" preserveAspectRatio="xMidYMid meet"><g id="icon-archive" fill-rule="evenodd"><path d="M12,11.75 C12,12.1601562 11.6979167,12.5 11.3333333,12.5 L8.66666667,12.5 C8.30208333,12.5 8,12.1601562 8,11.75 C8,11.3398438 8.30208333,11 8.66666667,11 L11.3333333,11 C11.6979167,11 12,11.3398438 12,11.75 Z M17,9.64705882 C17,9.29319853 16.7356771,9 16.4166667,9 L3.58333333,9 C3.26432292,9 3,9.29319853 3,9.64705882 L3,19.3529412 C3,19.7068015 3.26432292,20 3.58333333,20 L16.4166667,20 C16.7356771,20 17,19.7068015 17,19.3529412 L17,9.64705882 Z M18,5.58333333 C18,5.26432292 17.7211538,5 17.3846154,5 L2.61538462,5 C2.27884615,5 2,5.26432292 2,5.58333333 L2,7.91666667 C2,8.23567708 2.27884615,8.5 2.61538462,8.5 L17.3846154,8.5 C17.7211538,8.5 18,8.23567708 18,7.91666667 L18,5.58333333 Z"></path></g></svg>