<svg width="24" height="24" viewBox="0 0 24 24" fill="none" xmlns="http://www.w3.org/2000/svg">
<path d="M19 3H5C3.89 3 3 3.89 3 5V19C3 19.5304 3.21071 20.0391 3.58579 20.4142C3.96086 20.7893 4.46957 21 5 21H19C19.5304 21 20.0391 20.7893 20.4142 20.4142C20.7893 20.0391 21 19.5304 21 19V5C21 3.89 20.1 3 19 3Z" fill="white"/>
<path fill-rule="evenodd" clip-rule="evenodd" d="M5 3C3.89543 3 3 3.89543 3 5V19C3 20.1046 3.89543 21 5 21H19C20.1046 21 21 20.1046 21 19V5C21 3.89543 20.1046 3 19 3H5ZM10.7954 8.66859C11.0712 8.78678 11.25 9.05793 11.25 9.35795V16.726C11.25 17.2644 10.6995 17.6275 10.2046 17.4154L6.45456 15.8082C6.1788 15.69 6 15.4189 6 15.1189V7.75081C6 7.21237 6.55054 6.84935 7.04544 7.06145L10.7954 8.66859ZM13.2046 8.66859C12.9288 8.78678 12.75 9.05793 12.75 9.35795V16.726C12.75 17.2644 13.3005 17.6275 13.7954 17.4154L17.5454 15.8082C17.8212 15.69 18 15.4189 18 15.1189V7.75081C18 7.21237 17.4495 6.84935 16.9546 7.06145L13.2046 8.66859Z" fill="#29C4A9"/>
<path fill-rule="evenodd" clip-rule="evenodd" d="M13.2046 8.66859C12.9288 8.78678 12.75 9.05793 12.75 9.35795V16.726C12.75 17.2644 13.3005 17.6275 13.7954 17.4154L17.5454 15.8082C17.8212 15.69 18 15.4189 18 15.1189V7.75081C18 7.21237 17.4495 6.84935 16.9546 7.06145L13.2046 8.66859Z" fill="#29C47F"/>
<path fill-rule="evenodd" clip-rule="evenodd" d="M13.2046 8.66859C12.9288 8.78678 12.75 9.05793 12.75 9.35795V16.726C12.75 17.2644 13.3005 17.6275 13.7954 17.4154L17.5454 15.8082C17.8212 15.69 18 15.4189 18 15.1189V7.75081C18 7.21237 17.4495 6.84935 16.9546 7.06145L13.2046 8.66859Z" fill="white" fill-opacity="0.8"/>
</svg>
